<?xml version="1.0" encoding="UTF-8"?>
<svg version="1.1" xmlns="http://www.w3.org/2000/svg" viewBox="0 0 1281 825">

<path d="M0 0 C1.32080738 2.64161476 1.13982021 4.63393626 1.15821838 7.59341431 C1.17290161 9.37713188 1.17290161 9.37713188 1.18788147 11.19688416 C1.19363693 12.50814774 1.1993924 13.81941132 1.20532227 15.17041016 C1.21489851 16.55985304 1.22490844 17.94929299 1.23532104 19.33872986 C1.26240367 23.11739783 1.28339501 26.89607834 1.30332303 30.67478991 C1.32516191 34.62130052 1.35256084 38.56777236 1.37937927 42.51425171 C1.42933458 49.9904746 1.47426286 57.46671899 1.51740164 64.94298398 C1.56674978 73.45317212 1.62167688 81.96332135 1.67708123 90.47347188 C1.79094484 107.98227864 1.89777432 125.4911215 2 143 C2.77888864 142.99885445 3.55777727 142.99770889 4.36026859 142.99652863 C24.10468553 142.9716291 43.84598671 143.05219246 63.58984375 143.21875 C66.37048649 143.24141974 69.15113224 143.26370945 71.93177795 143.28601074 C78.40479282 143.33813586 84.8777967 143.39150989 91.35079724 143.4453826 C99.47539183 143.51293003 107.60000055 143.57872125 115.72460938 143.64453125 C130.14975341 143.76138355 144.57487474 143.88080168 159 144 C159 166.11 159 188.22 159 211 C125.41900933 211.11016385 91.83819355 211.20250878 58.25707663 211.25532665 C54.29532616 211.26158041 50.33357607 211.268052 46.37182617 211.2746582 C45.5830908 211.27596976 44.79435543 211.27728131 43.98171899 211.2786326 C31.19936334 211.30040763 18.41711977 211.33984063 5.63483068 211.38576398 C-7.47445068 211.43247041 -20.5836732 211.46028305 -33.69303435 211.47044247 C-41.7866433 211.47731376 -49.87993551 211.49903969 -57.97344699 211.53958233 C-64.17259079 211.56905957 -70.37149156 211.57228888 -76.57069588 211.56553841 C-79.11890875 211.5669192 -81.6671331 211.57693398 -84.21527481 211.59602737 C-87.68289124 211.62074597 -91.1491301 211.61498156 -94.61677551 211.60127258 C-95.63524734 211.61583679 -96.65371916 211.630401 -97.70305377 211.64540654 C-100.23594026 211.61816391 -102.53039115 211.5616148 -105 211 C-107.07425976 208.63141155 -107.07425976 208.63141155 -108 206 C-108.39437256 205.10772705 -108.78874512 204.2154541 -109.19506836 203.29614258 C-109.57284424 202.33861084 -109.95062012 201.3810791 -110.33984375 200.39453125 C-110.76330078 199.32783203 -111.18675781 198.26113281 -111.62304688 197.16210938 C-112.05681641 196.05673828 -112.49058594 194.95136719 -112.9375 193.8125 C-113.58235352 192.18344727 -113.58235352 192.18344727 -114.24023438 190.52148438 C-115.09321046 188.36639306 -115.94430822 186.21055729 -116.79345703 184.05395508 C-117.88886445 181.28130201 -118.99855878 178.51492793 -120.11328125 175.75 C-121.91232584 171.25938606 -123.59745683 166.73372439 -125.25 162.1875 C-128.7815253 152.53828028 -132.42739134 142.93458638 -136.10400391 133.33984375 C-136.90891584 131.2378612 -137.71095439 129.13481515 -138.51171875 127.03125 C-138.94097656 125.9071875 -139.37023437 124.783125 -139.8125 123.625 C-140.16957031 122.68914062 -140.52664063 121.75328125 -140.89453125 120.7890625 C-141.71089465 118.72940361 -142.57198702 116.68734346 -143.45703125 114.65625 C-145.09553303 110.773623 -146.50351775 106.85719505 -147.875 102.875 C-150.93114125 94.11285089 -154.03146248 85.35583182 -157.8125 76.875 C-159 74 -159 74 -159 71 C-157.44970703 69.71655273 -157.44970703 69.71655273 -155.2578125 68.43359375 C-154.44820068 67.95325684 -153.63858887 67.47291992 -152.80444336 66.97802734 C-151.4781189 66.21546631 -151.4781189 66.21546631 -150.125 65.4375 C-149.2182251 64.90592285 -148.3114502 64.3743457 -147.37719727 63.82666016 C-144.59327559 62.20252398 -141.79927308 60.59751188 -139 59 C-137.80818115 58.3191333 -137.80818115 58.3191333 -136.59228516 57.62451172 C-131.42742607 54.68894372 -126.22345219 51.82973883 -121 49 C-120.18015625 48.55317871 -119.3603125 48.10635742 -118.515625 47.64599609 C-115.99440458 46.27566253 -113.46715775 44.91718554 -110.9375 43.5625 C-110.17622803 43.14919434 -109.41495605 42.73588867 -108.63061523 42.31005859 C-103.56503466 39.62491793 -98.49073883 37.64552022 -93 36 C-90.57399342 39.58124781 -89.24933837 43.05897286 -87.9453125 47.12890625 C-86.71653269 50.86094412 -85.40636714 54.55803426 -84.0625 58.25 C-83.70128052 59.27830933 -83.70128052 59.27830933 -83.33276367 60.32739258 C-83.09017822 60.98763428 -82.84759277 61.64787598 -82.59765625 62.328125 C-82.38633057 62.9149707 -82.17500488 63.50181641 -81.95727539 64.10644531 C-80.6471188 66.69802259 -78.85773935 68.78016498 -77 71 C-76.99589111 69.71311279 -76.99178223 68.42622559 -76.98754883 67.1003418 C-76.96579576 62.33089 -76.91154597 57.5622677 -76.84741211 52.79321289 C-76.82419866 50.72818952 -76.80982857 48.6630472 -76.80444336 46.59790039 C-76.79517822 43.63091615 -76.7542418 40.66581155 -76.70703125 37.69921875 C-76.7109639 36.7741301 -76.71489655 35.84904144 -76.71894836 34.8959198 C-76.66409722 32.49260713 -76.57603472 30.33399508 -76 28 C-73.59228516 25.95361328 -73.59228516 25.95361328 -71 25 C-70.27941406 24.68417969 -69.55882812 24.36835938 -68.81640625 24.04296875 C-68.07261719 23.76066406 -67.32882812 23.47835937 -66.5625 23.1875 C-62.59074068 21.6487336 -58.70290823 19.98376888 -54.8125 18.25 C-44.75830264 13.91440179 -34.36642147 10.504011 -24 7 C-22.81833252 6.5985376 -22.81833252 6.5985376 -21.61279297 6.18896484 C-3.38087871 0 -3.38087871 0 0 0 Z " fill="#000000" transform="translate(798,186)"/>
<path d="M0 0 C1.18571594 -0.00065712 1.18571594 -0.00065712 2.39538574 -0.00132751 C5.00904004 0.00076307 7.62205342 0.02410641 10.2355957 0.04760742 C12.04734446 0.05320243 13.85909775 0.05747298 15.67085266 0.06047058 C20.44016036 0.07192688 25.20919412 0.1014008 29.97839355 0.13458252 C34.84468886 0.16526649 39.71102842 0.17897234 44.57739258 0.1940918 C54.12634108 0.22626976 63.67508624 0.2774756 73.22387695 0.34057617 C74.66190428 3.4838177 76.09196095 6.63062673 77.52075195 9.77807617 C77.92277832 10.65657227 78.32480469 11.53506836 78.73901367 12.44018555 C81.86887999 19.35011444 84.46100402 26.35168072 86.8996582 33.52807617 C88.74001446 38.9118845 90.98601132 44.11240314 93.22387695 49.34057617 C94.39987849 52.12839572 95.56470788 54.92071834 96.72387695 57.71557617 C97.17512939 58.80261841 97.17512939 58.80261841 97.63549805 59.91162109 C99.50058446 64.45047184 101.19165455 69.01248526 102.78637695 73.65307617 C104.332632 78.10873217 106.09914973 82.22547217 108.28637695 86.40307617 C110.96452009 91.54073851 112.63624575 96.64500731 114.2355957 102.19995117 C115.45679175 106.0807481 117.11688237 109.63352999 118.8527832 113.30541992 C120.54940498 117.0611895 122.0631928 120.86757026 123.53637695 124.71557617 C123.80305176 125.39402588 124.06972656 126.07247559 124.34448242 126.77148438 C125.7201853 130.41605685 126.54789285 133.43731487 126.22387695 137.34057617 C122.38025582 139.13426603 118.71826313 140.51629711 114.59887695 141.52807617 C107.89142415 143.26979043 101.52975414 145.844061 95.08276367 148.35571289 C89.05335894 150.68950182 83.05359791 152.73561274 76.81762695 154.45385742 C74.14712205 155.26494698 74.14712205 155.26494698 71.6809082 156.87182617 C69.19005656 158.36079313 67.24135762 158.97897544 64.41137695 159.52807617 C63.62118164 159.68663086 62.83098633 159.84518555 62.0168457 160.00854492 C61.42516602 160.11811523 60.83348633 160.22768555 60.22387695 160.34057617 C56.67444533 155.77702123 55.08276159 151.23763834 53.35668945 145.74682617 C52.13187259 142.06392857 50.70333154 138.48840447 49.22387695 134.90307617 C47.25990781 130.12400306 45.55834393 125.36756226 44.09887695 120.40307617 C42.84947673 116.16642686 41.39684878 112.46032478 39.3059082 108.58666992 C33.22387695 95.9615148 33.22387695 95.9615148 33.22387695 90.34057617 C32.23387695 90.67057617 31.24387695 91.00057617 30.22387695 91.34057617 C29.26741942 94.00006781 28.49295217 96.55213948 27.78637695 99.27807617 C27.35243891 100.84937671 26.91495507 102.41970246 26.47387695 103.98901367 C26.26118164 104.74666016 26.04848633 105.50430664 25.8293457 106.28491211 C24.87575442 109.5225083 23.62573786 112.59709403 22.31762695 115.70385742 C20.89381018 119.13627286 19.58809518 122.61057283 18.28637695 126.09057617 C17.90304199 127.11344727 17.90304199 127.11344727 17.51196289 128.15698242 C15.40642591 133.80014097 13.38609165 139.47073135 11.3996582 145.15698242 C10.58391574 147.36572032 9.70099815 149.5503467 8.7668457 151.71166992 C7.06956238 155.70350841 5.63217706 159.7403691 4.22387695 163.84057617 C2.80635215 167.96764058 1.38414549 172.05744866 -0.36987305 176.05541992 C-1.88523201 179.59546683 -2.92325791 183.10713697 -3.93237305 186.81323242 C-5.98388642 192.95827481 -7.96271908 195.97499396 -13.65112305 199.21557617 C-14.8374229 199.90941233 -16.0236182 200.60342727 -17.2097168 201.29760742 C-17.81025879 201.64130371 -18.41080078 201.985 -19.02954102 202.33911133 C-36.41681141 212.30872038 -53.15991477 223.782087 -68.77612305 236.34057617 C-70.11223633 237.40598633 -70.11223633 237.40598633 -71.4753418 238.49291992 C-82.02659455 247.01093857 -92.47718334 255.74434383 -101.9206543 265.48901367 C-103.55452224 267.11944189 -105.20982519 268.54730833 -107.02612305 269.96557617 C-109.38228082 272.0004397 -110.79611316 273.63349781 -112.52612305 276.15307617 C-113.63987305 277.73088867 -113.63987305 277.73088867 -114.77612305 279.34057617 C-115.43612305 279.34057617 -116.09612305 279.34057617 -116.77612305 279.34057617 C-116.1503139 275.578919 -115.05487376 272.39114346 -113.52612305 268.90307617 C-111.58765569 264.36695082 -109.84145251 259.80977717 -108.21362305 255.15307617 C-106.86402169 251.30608164 -105.48585326 247.54155845 -103.77612305 243.84057617 C-101.57598972 239.06188658 -99.87780142 234.13184276 -98.1315918 229.17260742 C-91.58056876 210.58160542 -91.58056876 210.58160542 -87.63549805 203.17651367 C-86.25881559 200.23541933 -85.49276282 197.13377461 -84.6081543 194.01635742 C-83.40636343 190.15144312 -81.82684758 186.48158933 -80.23706055 182.76245117 C-78.50263633 178.70000301 -76.8259195 174.61537704 -75.15112305 170.52807617 C-73.51706073 166.54174744 -71.87740971 162.56090284 -70.15893555 158.61010742 C-69.06736413 156.02918856 -68.11268923 153.50962065 -67.27612305 150.84057617 C-65.99246482 146.89648638 -64.44319136 143.14149192 -62.77612305 139.34057617 C-60.67416707 134.3600379 -58.74745561 129.42121476 -57.27612305 124.21557617 C-56.16375591 120.34934878 -54.68763307 117.00747915 -52.8112793 113.46166992 C-51.22973731 110.22100088 -50.08131191 106.84571905 -48.90112305 103.44213867 C-46.65403684 97.24704683 -44.12503485 91.1618254 -41.5925293 85.07885742 C-37.73823379 75.8146984 -33.99796525 66.61623857 -31.04174805 57.02026367 C-29.59456231 52.81270514 -27.89172468 48.75298794 -26.1628418 44.65454102 C-23.74400068 38.87402178 -21.44991033 33.04464393 -19.15112305 27.21557617 C-18.67416992 26.01803711 -18.1972168 24.82049805 -17.70581055 23.58666992 C-15.3295796 17.56028423 -13.13255337 11.61646665 -11.53637695 5.33325195 C-9.37139498 -0.34130902 -5.47713998 -0.07912348 0 0 Z " fill="#010101" transform="translate(548.776123046875,13.659423828125)"/>
<path d="M0 0 C8.51103558 1.39271491 16.06348569 4.75847898 23.94335938 8.12597656 C26.80464605 9.34195547 29.68459299 10.51150246 32.5625 11.6875 C35.83203713 13.0442467 38.99394439 14.4754379 42.125 16.125 C45.70227902 17.97659369 49.32374947 19.0792623 53.21484375 20.09375 C57.2849364 21.41809992 61.10952811 23.2242881 65 25 C66.75096744 25.7872031 68.50227703 26.57364556 70.25390625 27.359375 C72.02353463 28.15603427 73.79306533 28.95291057 75.5625 29.75 C76.47580078 30.16121094 77.38910156 30.57242188 78.33007812 30.99609375 C80.55347227 31.99720316 82.77677806 32.99850824 85 34 C85 34.66 85 35.32 85 36 C80.46531463 38.06348704 75.93039342 40.12645464 71.39526367 42.18896484 C69.85613803 42.88902136 68.31707419 43.58921375 66.77807617 44.28955078 C56.14975423 49.12593746 45.51089949 53.92310398 34.79052734 58.55273438 C25.78158874 62.44539249 16.82249959 66.40713978 7.9609375 70.625 C5.33523684 71.84432273 2.69949325 72.95632975 0 74 C0.69632223 69.27429315 2.46069495 65.17564391 4.3125 60.8125 C4.94551879 59.29565899 5.57833212 57.77873222 6.2109375 56.26171875 C6.80703962 54.84104005 7.40337354 53.42045858 8 52 C8.81831352 50.04408879 9.63213085 48.08627668 10.4375 46.125 C10.74558594 45.38507813 11.05367187 44.64515625 11.37109375 43.8828125 C12.15840902 41.85660196 12.15840902 41.85660196 12 39 C5.11544127 38.85907373 -1.4886063 39.38915504 -8.31640625 40.2421875 C-9.90025368 40.43483688 -9.90025368 40.43483688 -11.51609802 40.63137817 C-13.73591173 40.90280191 -15.955397 41.17692409 -18.17456055 41.45361328 C-21.55491523 41.87405662 -24.93649396 42.28331358 -28.31835938 42.69140625 C-30.48445734 42.95766436 -32.65047586 43.22456967 -34.81640625 43.4921875 C-36.31984337 43.67356766 -36.31984337 43.67356766 -37.85365295 43.85861206 C-43.37685787 44.5551261 -48.62409225 45.55644106 -54 47 C-55.47389566 47.20819072 -56.95347768 47.38428676 -58.4375 47.5 C-61.36723842 47.77780572 -64.16049616 48.2099175 -67.0234375 48.88671875 C-72.71583815 50.18546752 -78.44961979 51.23645983 -84.1875 52.3125 C-92.92634888 53.97409892 -101.63490867 55.72980008 -110.3125 57.6875 C-111.21830811 57.88964111 -112.12411621 58.09178223 -113.05737305 58.30004883 C-117.2177927 59.25500999 -121.04745064 60.36834261 -125 62 C-126.59649821 62.31288156 -128.20208387 62.58171596 -129.8125 62.8125 C-136.05066988 63.87734889 -141.95321657 65.77320259 -147.95703125 67.71484375 C-151.61154409 68.89369088 -155.29485048 69.92777282 -159 70.9375 C-165.61389781 72.79695013 -171.96851556 75.16055849 -178.375 77.62109375 C-181.85069559 78.9432064 -185.34071201 80.14555391 -188.875 81.296875 C-195.22464636 83.39786093 -201.46761277 85.74455295 -207.6328125 88.3359375 C-211.66699855 90.02602236 -215.70562394 91.70333855 -219.75390625 93.359375 C-235.69882689 99.90665544 -251.37243963 106.81811429 -266.52099609 115.06005859 C-270.21299785 117.06677479 -273.93900702 118.96344751 -277.72094727 120.79467773 C-291.53260417 127.50417661 -304.6485405 135.55870248 -317.33203125 144.19921875 C-320.10246919 146.06916295 -322.91723683 147.85114148 -325.75 149.625 C-330.35251959 152.54255159 -334.70072069 155.65611609 -339 159 C-341.10329415 160.62614528 -343.20747615 162.25109827 -345.3125 163.875 C-345.87090576 164.3071582 -346.42931152 164.73931641 -347.00463867 165.18457031 C-350.51282735 167.88980172 -354.07404883 170.4982804 -357.6875 173.0625 C-362.19127442 176.30834611 -366.27976033 179.84145115 -370.34692383 183.61499023 C-372.80678952 185.82631148 -375.33081558 187.87370662 -377.9296875 189.91796875 C-384.45182419 195.22936686 -390.37538673 201.07328091 -396.29833984 207.03759766 C-398.12248747 208.87247269 -399.95709873 210.69639332 -401.79296875 212.51953125 C-407.85517039 218.57477401 -413.59513634 224.69979767 -418.91772461 231.42944336 C-421.03399668 234.0419687 -423.26701174 236.4898946 -425.55859375 238.94921875 C-430.32952623 244.19651957 -434.20484769 249.87484326 -438.0625 255.8125 C-438.75569336 256.86767822 -439.44888672 257.92285645 -440.16308594 259.01000977 C-442.12024284 261.99939425 -444.06355866 264.99716639 -446 268 C-446.4748584 268.73379883 -446.9497168 269.46759766 -447.43896484 270.22363281 C-451.55824756 276.62267748 -455.0951513 282.97168313 -458 290 C-460.68965517 295.68965517 -460.68965517 295.68965517 -463 298 C-466.01435483 298.17521866 -468.92531465 298.23343059 -471.9375 298.1875 C-472.79255127 298.18105469 -473.64760254 298.17460937 -474.52856445 298.16796875 C-480.71984986 298.09300096 -486.85288421 297.77356963 -493 297 C-492.0329761 292.77670683 -490.36849965 289.01419239 -488.625 285.0625 C-488.32078125 284.35931641 -488.0165625 283.65613281 -487.703125 282.93164062 C-487.40148437 282.24392578 -487.09984375 281.55621094 -486.7890625 280.84765625 C-486.51787598 280.22898682 -486.24668945 279.61031738 -485.96728516 278.97290039 C-483.80343059 274.55944537 -481.04605254 270.51287751 -478.3125 266.4375 C-477.61382812 265.39335937 -476.91515625 264.34921875 -476.1953125 263.2734375 C-474.73177083 261.09114583 -473.26822917 258.90885417 -471.8046875 256.7265625 C-471.10601562 255.68242187 -470.40734375 254.63828125 -469.6875 253.5625 C-469.05199219 252.61503906 -468.41648437 251.66757812 -467.76171875 250.69140625 C-466.61712941 248.94279859 -465.50779835 247.170412 -464.44140625 245.37304688 C-463.15555437 243.2560956 -461.8148123 241.38300774 -460.25 239.46875 C-459.72277344 238.82164062 -459.19554687 238.17453125 -458.65234375 237.5078125 C-458.10707031 236.84523438 -457.56179688 236.18265625 -457 235.5 C-456.48566406 234.86835938 -455.97132813 234.23671875 -455.44140625 233.5859375 C-453.63874745 231.38124688 -451.81925495 229.19101575 -450 227 C-449.21431641 226.03932617 -448.42863281 225.07865234 -447.61914062 224.08886719 C-440.95360782 216.00774884 -433.81435982 208.5033752 -426.38427734 201.12353516 C-424.49469553 199.24472577 -422.61612095 197.35538146 -420.73828125 195.46484375 C-414.5105777 189.23071573 -408.23560703 183.29599297 -401.30541992 177.84008789 C-399.04987914 176.0398114 -396.92700243 174.15029646 -394.8125 172.1875 C-386.04406379 164.30221564 -376.24109089 157.44149323 -366.53515625 150.765625 C-364.02469309 149.01719765 -361.55549632 147.21716359 -359.0847168 145.41333008 C-352.98440553 140.97865002 -346.76649871 136.90984093 -340.23754883 133.13134766 C-336.53477649 130.9790376 -333.06111719 128.6447264 -329.59692383 126.12719727 C-327.58085868 124.70414685 -325.49546693 123.52392996 -323.3125 122.375 C-317.83675584 119.44752459 -312.38103038 116.48688843 -306.9375 113.5 C-305.62048096 112.77937378 -305.62048096 112.77937378 -304.27685547 112.04418945 C-299.92502781 109.65244861 -295.64081041 107.20977723 -291.4375 104.5625 C-287.31664132 102.01704924 -283.07250244 100.49025614 -278.49609375 98.9453125 C-275.24306912 97.7133376 -272.76375435 96.09148978 -270 94 C-271.68924536 94.43071175 -273.37631435 94.86996137 -275.0625 95.3125 C-276.00222656 95.55613281 -276.94195313 95.79976563 -277.91015625 96.05078125 C-280.67725697 96.90085138 -283.26368265 97.93177533 -285.90844727 99.10083008 C-288.44737051 100.19232702 -291.01493361 101.19555582 -293.58984375 102.19921875 C-305.7213917 106.94572386 -317.46883682 111.93654106 -329 118 C-332.97597461 120.01291584 -336.97170289 121.98627377 -340.96484375 123.96484375 C-347.53370343 127.22406504 -354.07009227 130.47356767 -360.3984375 134.1875 C-362 135 -362 135 -364 135 C-364 135.66 -364 136.32 -364 137 C-364.71542969 137.3403125 -365.43085937 137.680625 -366.16796875 138.03125 C-395.356163 152.22887101 -422.18089722 173.10774374 -446 195 C-446.75925781 195.66773438 -447.51851563 196.33546875 -448.30078125 197.0234375 C-460.2269684 207.52472831 -471.27614363 218.59529863 -480.77099609 231.35205078 C-481.96456143 232.95248107 -483.17926231 234.53708089 -484.39453125 236.12109375 C-489.56476021 242.89435793 -494.34518859 249.86560635 -499 257 C-499.7321875 258.07894531 -500.464375 259.15789062 -501.21875 260.26953125 C-507.90127896 270.21305407 -512.92179349 280.74561356 -517.6015625 291.75390625 C-518.65709137 294.20403054 -519.80691574 296.61383148 -521 299 C-531.89 299 -542.78 299 -554 299 C-552.85947004 293.29735019 -550.78280997 288.63507782 -548.375 283.375 C-547.69667114 281.88939575 -547.69667114 281.88939575 -547.00463867 280.3737793 C-543.80914336 273.48999622 -540.33828097 267.23116299 -536 261 C-534.76250522 259.0886998 -533.53342724 257.17192572 -532.3125 255.25 C-531.77238281 254.40953125 -531.23226563 253.5690625 -530.67578125 252.703125 C-529.42496697 250.6854945 -528.23669231 248.62884444 -527.08203125 246.5546875 C-525.11946719 243.09569766 -522.83328019 240.00590409 -520.375 236.875 C-519.48004744 235.73340307 -518.5855278 234.59146665 -517.69140625 233.44921875 C-517.24039551 232.87478027 -516.78938477 232.3003418 -516.32470703 231.70849609 C-515.07783897 230.10039018 -513.86389022 228.46691343 -512.65234375 226.83203125 C-503.24160494 214.18487809 -492.16045554 203.09783797 -481.0625 191.9375 C-480.37728271 191.2475293 -479.69206543 190.55755859 -478.98608398 189.84667969 C-456.84951125 167.78258027 -430.27044056 147.75450878 -402.9375 132.6328125 C-400.50537367 131.28091249 -398.15363872 129.875972 -395.8125 128.375 C-391.99846347 125.94788585 -388.04600843 123.81779244 -384.06640625 121.67578125 C-380.61873769 119.79164136 -377.21577875 117.83771343 -373.8125 115.875 C-362.52987372 109.39018999 -362.52987372 109.39018999 -356.71875 107.1015625 C-353.44024048 105.77320089 -350.25691058 104.26587865 -347.0625 102.75 C-340.80742962 99.80187861 -334.49880027 97.03365476 -328.12109375 94.359375 C-326.05661902 93.46020453 -324.01785333 92.49929778 -322.01171875 91.4765625 C-318.85306155 89.92796014 -315.70197197 88.7645835 -312.375 87.625 C-307.92846419 86.07010491 -303.57206031 84.43459019 -299.25 82.5625 C-286.30488907 77.06644489 -272.62699901 73.13846811 -259.15625 69.16015625 C-258.2796875 68.90105469 -257.403125 68.64195312 -256.5 68.375 C-255.7471875 68.15585938 -254.994375 67.93671875 -254.21875 67.7109375 C-251.95589649 67.01978874 -251.95589649 67.01978874 -249.65625 66.02734375 C-246.48102451 64.7992786 -243.30737299 63.99711735 -240 63.1875 C-239.31502441 63.01863281 -238.63004883 62.84976563 -237.92431641 62.67578125 C-233.87947243 61.68366667 -229.8278696 60.72162941 -225.7734375 59.76953125 C-224.87753906 59.55852783 -223.98164062 59.34752441 -223.05859375 59.13012695 C-221.33543169 58.72551621 -219.61152912 58.32403914 -217.88671875 57.92651367 C-212.97655247 56.77653654 -208.14779061 55.46554458 -203.3125 54.03125 C-195.83034539 51.87003151 -188.28366071 50.3776055 -180.625 49 C-179.21763227 48.74210668 -177.81032521 48.48388201 -176.40307617 48.2253418 C-168.04952651 46.69814823 -159.6864907 45.22338885 -151.3125 43.8125 C-150.4683252 43.67005859 -149.62415039 43.52761719 -148.75439453 43.38085938 C-131.11978066 40.48238468 -113.40892916 38.13362587 -95.625 36.375 C-94.52621521 36.26572174 -93.42743042 36.15644348 -92.29534912 36.04385376 C-56.99318561 32.6518276 -21.43193533 33.05804882 14 33 C13.66167648 32.33604218 13.32335297 31.67208435 12.97477722 30.98800659 C12.30506645 29.66338913 12.30506645 29.66338913 11.62182617 28.31201172 C11.18037766 27.44180389 10.73892914 26.57159607 10.28410339 25.67501831 C8.32622615 21.5964079 6.81234288 17.38879022 5.3125 13.125 C4.72737508 11.48101665 4.14020747 9.83775859 3.55078125 8.1953125 C3.29981689 7.48391113 3.04885254 6.77250977 2.7902832 6.03955078 C1.98103411 3.95105311 1.03230494 1.98646839 0 0 Z " fill="#020202" transform="translate(943,99)"/>
<path d="M0 0 C10.580625 -0.103125 21.16125 -0.20625 32.0625 -0.3125 C37.02615601 -0.38078003 37.02615601 -0.38078003 42.09008789 -0.45043945 C44.75926708 -0.46506401 47.42845757 -0.47779999 50.09765625 -0.48828125 C51.10366127 -0.50788155 51.10366127 -0.50788155 52.12998962 -0.52787781 C68.32968292 -0.82700944 85.76078881 3.78543136 97.74511719 15.24755859 C99.92955838 17.42845592 102.02789678 19.62415912 104 22 C104 22.66 104 23.32 104 24 C104.66 24 105.32 24 106 24 C115.1497506 39.54204211 118.80020512 55.30401598 114.9375 73.25 C109.96204055 89.95828709 100.39572408 102.54897992 85 111 C61.16430382 122.45750203 22.40600764 117 0 117 C0 78.39 0 39.78 0 0 Z " fill="#030303" transform="translate(795,484)"/>
<path d="M0 0 C1.03182404 -0.04496109 2.06364807 -0.08992218 3.1267395 -0.13624573 C7.8554884 -0.25677493 12.583035 -0.37133063 17.31298828 -0.43261719 C19.80233169 -0.47719712 22.29132529 -0.55216157 24.77880859 -0.65820312 C44.87703881 -1.51165668 44.87703881 -1.51165668 49.93206787 1.91522217 C53.45491804 5.61977824 55.16710789 9.82964242 56.93701172 14.56274414 C57.85816246 16.16799444 58.80779559 17.75810682 59.81201172 19.31274414 C60.27220703 20.08875977 60.73240234 20.86477539 61.20654297 21.66430664 C63.60957513 25.68924989 66.05472194 29.68806481 68.49951172 33.68774414 C68.95890137 34.44023438 69.41829102 35.19272461 69.89160156 35.96801758 C72.8772077 40.85160854 75.89402419 45.71470613 78.93701172 50.56274414 C82.85599653 47.10217269 85.14017914 43.1139184 87.68701172 38.62524414 C88.57526686 37.0868667 89.4646005 35.5491115 90.35498047 34.01196289 C91.01119385 32.87573486 91.01119385 32.87573486 91.68066406 31.71655273 C94.02476378 27.69796593 96.46853714 23.74964132 99.01513672 19.85571289 C100.51299464 17.28926122 101.49536026 15.17481156 102.48388672 12.42602539 C105.80353409 4.12978861 105.80353409 4.12978861 109.93701172 1.56274414 C118.75359079 -0.33137641 128.03725023 0.6557443 136.93701172 1.56274414 C135.62165958 5.05482945 134.08531841 8.20060378 132.17919922 11.40649414 C131.6394043 12.31753906 131.09960938 13.22858398 130.54345703 14.16723633 C129.97208008 15.12275391 129.40070313 16.07827148 128.81201172 17.06274414 C128.23032227 18.04146484 127.64863281 19.02018555 127.04931641 20.02856445 C123.2014709 26.48859127 119.30374472 32.91529873 115.32763672 39.29711914 C113.94020161 41.48407849 113.94020161 41.48407849 112.93701172 43.56274414 C112.27701172 43.56274414 111.61701172 43.56274414 110.93701172 43.56274414 C110.59089844 44.78864258 110.59089844 44.78864258 110.23779297 46.03930664 C108.65176289 50.33540012 106.48594868 54.02867913 104.12451172 57.93774414 C103.69847656 58.65446289 103.27244141 59.37118164 102.83349609 60.10961914 C99.18224336 66.23002464 99.18224336 66.23002464 97.68318176 68.2638855 C93.86215741 73.70085998 93.22344373 77.90219163 93.30029297 84.46118164 C93.28991501 85.3773526 93.27953705 86.29352356 93.2688446 87.23745728 C93.23933875 90.13794305 93.2425194 93.03713636 93.24951172 95.93774414 C93.24062324 98.85941255 93.22473465 101.7807405 93.19804382 104.70230103 C93.18310323 106.51407124 93.17934051 108.32597489 93.18782043 110.13778687 C93.15942042 116.34033544 93.15942042 116.34033544 90.93701172 118.56274414 C88.53857422 118.80566406 88.53857422 118.80566406 85.56201172 118.79321289 C84.49466797 118.7912793 83.42732422 118.7893457 82.32763672 118.78735352 C81.20873047 118.77510742 80.08982422 118.76286133 78.93701172 118.75024414 C77.25865234 118.74927734 77.25865234 118.74927734 75.54638672 118.74829102 C67.21757491 118.70302573 67.21757491 118.70302573 64.93701172 117.56274414 C64.985271 116.39106689 65.03353027 115.21938965 65.08325195 114.01220703 C65.93892117 89.92832471 66.19972386 71.47911143 50.77099609 51.90307617 C48.339527 48.80029892 46.26463154 45.53200238 44.18701172 42.18774414 C43.50509766 41.14360352 42.82318359 40.09946289 42.12060547 39.02368164 C37.87461652 32.40033478 34.06738879 25.4990562 30.15576172 18.67553711 C27.80689393 14.60360165 25.38275154 10.57705971 22.93701172 6.56274414 C19.24706381 8.10658442 16.91306662 10.35088357 14.12451172 13.18774414 C13.31369141 14.00500977 12.50287109 14.82227539 11.66748047 15.66430664 C8.95854958 18.53988135 6.36771074 21.49303299 3.77758789 24.47485352 C0.76504784 27.8921824 -2.37042727 31.19090719 -5.50048828 34.50024414 C-6.81218463 35.89951665 -8.12338631 37.29925305 -9.43408203 38.69946289 C-11.55793574 40.96626301 -13.69240302 43.22082473 -15.84814453 45.45727539 C-16.94449219 46.62323242 -16.94449219 46.62323242 -18.06298828 47.81274414 C-18.68173828 48.45727539 -19.30048828 49.10180664 -19.93798828 49.76586914 C-21.22577336 51.46821286 -21.22577336 51.46821286 -21.05908203 53.39477539 C-19.56950894 56.63678741 -17.36845235 59.25783463 -15.12548828 62.00024414 C-14.11571977 63.25883436 -13.10661911 64.51796064 -12.09814453 65.77758789 C-11.58783691 66.41164551 -11.0775293 67.04570313 -10.55175781 67.69897461 C-8.34895701 70.45662979 -6.20473372 73.2575842 -4.06298828 76.06274414 C-0.21629537 81.08443519 3.68290245 86.06235387 7.60302734 91.02685547 C12.00778816 96.62056001 16.31987917 102.28415703 20.61010742 107.96606445 C21.13048584 108.65152344 21.65086426 109.33698242 22.18701172 110.04321289 C22.87537109 110.9542981 22.87537109 110.9542981 23.57763672 111.88378906 C24.91883283 113.61351942 24.91883283 113.61351942 26.60888672 115.15771484 C27.93701172 116.56274414 27.93701172 116.56274414 27.93701172 118.56274414 C24.47869688 118.59223646 21.02041518 118.60970574 17.56201172 118.62524414 C16.59650391 118.63362305 15.63099609 118.64200195 14.63623047 118.65063477 C-2.82829982 118.70924057 -2.82829982 118.70924057 -6.68798828 115.12524414 C-8.06298828 112.56274414 -8.06298828 112.56274414 -8.06298828 110.56274414 C-8.72298828 110.56274414 -9.38298828 110.56274414 -10.06298828 110.56274414 C-10.95442505 109.24341772 -11.83705088 107.91778863 -12.69189453 106.57446289 C-18.0461774 98.71846381 -24.68981634 91.61136442 -30.90087891 84.42211914 C-39.06298828 74.96322603 -39.06298828 74.96322603 -39.06298828 72.56274414 C-43.52545773 74.72636569 -46.19963783 77.79119937 -49.31689453 81.52758789 C-51.06298828 83.56274414 -51.06298828 83.56274414 -53.1340332 85.25537109 C-55.75617574 88.39191952 -55.60367366 90.4631817 -55.67236328 94.51586914 C-55.68889954 95.1760907 -55.70543579 95.83631226 -55.72247314 96.51654053 C-55.77087279 98.6153704 -55.79230347 100.71347636 -55.81298828 102.81274414 C-55.84115512 104.23986374 -55.87108357 105.66694973 -55.90283203 107.09399414 C-55.97993477 110.58390761 -56.02051636 114.07155183 -56.06298828 117.56274414 C-64.64298828 117.56274414 -73.22298828 117.56274414 -82.06298828 117.56274414 C-82.06298828 79.28274414 -82.06298828 41.00274414 -82.06298828 1.56274414 C-73.48298828 1.56274414 -64.90298828 1.56274414 -56.06298828 1.56274414 C-56.00240234 4.49020508 -55.94181641 7.41766602 -55.87939453 10.43383789 C-55.81744905 13.29347924 -55.75412633 16.15308705 -55.69067383 19.01269531 C-55.64756905 20.9882504 -55.60587866 22.9638369 -55.56567383 24.93945312 C-55.50737364 27.79184405 -55.44385683 30.64408035 -55.37939453 33.49633789 C-55.36268204 34.36858505 -55.34596954 35.24083221 -55.32875061 36.13951111 C-55.19748843 41.6689264 -54.74403752 47.07314799 -54.06298828 52.56274414 C-49.10695591 47.70785528 -44.32493071 42.79433981 -39.80908203 37.52758789 C-37.33817439 34.74712582 -34.68131888 32.17156196 -32.03173828 29.56274414 C-30.12312373 27.62383412 -28.33588277 25.62574863 -26.56298828 23.56274414 C-23.5513863 20.05833456 -20.34259661 16.82247506 -17.05126953 13.58227539 C-14.44373634 10.93375936 -12.01881345 8.14996934 -9.60595703 5.32446289 C-9.09677734 4.7430957 -8.58759766 4.16172852 -8.06298828 3.56274414 C-7.64058868 3.04301529 -7.21818909 2.52328644 -6.7829895 1.98780823 C-4.47744909 0.07761026 -2.97349914 0.11650205 0 0 Z " fill="#020202" transform="translate(490.06298828125,482.437255859375)"/>
<path d="M0 0 C12.22883225 11.07657146 17.53945918 26.35812711 18.62109375 42.51171875 C18.99857589 60.33284946 15.36918509 77.22840865 3.40625 90.91015625 C-6.9659914 101.38251581 -21.28279596 106.97975012 -35.9296875 107.328125 C-52.973387 106.92974585 -65.7147662 102.14484126 -77.6171875 89.953125 C-89.11340076 77.68707603 -92.18431804 60.88629826 -91.859375 44.62109375 C-90.73152908 27.53968543 -85.5913779 12.82312899 -72.6171875 0.953125 C-51.62075599 -16.20773792 -21.61828942 -16.9074383 0 0 Z " fill="#020202" transform="translate(533.6171875,668.046875)"/>
<path d="M0 0 C1.0442086 0.00303635 1.0442086 0.00303635 2.10951233 0.00613403 C2.83956985 0.00438171 3.56962738 0.00262939 4.32180786 0.00082397 C6.74650924 -0.00359443 9.17113828 -0.00065661 11.59584045 0.00271606 C13.27353428 0.00204302 14.95122802 0.00107299 16.62892151 -0.00018311 C20.14964219 -0.00166006 23.67033755 0.0004944 27.1910553 0.00515747 C31.71419541 0.01085476 36.23727619 0.00757574 40.76041412 0.00158501 C44.22611441 -0.00202067 47.69180052 -0.00088199 51.15750122 0.0017128 C52.8257447 0.00238205 54.49398945 0.00155371 56.16223145 -0.00076675 C58.48974539 -0.00329339 60.81716193 0.00054744 63.14466858 0.00613403 C63.84080765 0.0041098 64.53694672 0.00208557 65.25418091 0 C70.01282772 0.02126583 70.01282772 0.02126583 71.12709045 1.13552856 C71.22255976 2.53964173 71.24897574 3.94852665 71.24734497 5.35588074 C71.24940697 6.72103569 71.24940697 6.72103569 71.25151062 8.11376953 C71.24611771 9.62319626 71.24611771 9.62319626 71.24061584 11.16311646 C71.24076187 12.2166481 71.2409079 13.27017975 71.24105835 14.3556366 C71.24035871 17.85650657 71.23256393 21.35732408 71.2247467 24.85818481 C71.22288271 27.278142 71.22145872 29.69809956 71.22045898 32.11805725 C71.21663237 38.50167881 71.20680087 44.88527778 71.195755 51.26889038 C71.18554396 57.77716771 71.18096202 64.28544867 71.17591858 70.79373169 C71.16517873 83.57434031 71.14829157 96.35493324 71.12709045 109.13552856 C70.39184143 109.24622681 69.65659241 109.35692505 68.89906311 109.47097778 C65.51636276 109.98170442 62.13422871 110.4960933 58.75209045 111.01052856 C57.01765686 111.27156372 57.01765686 111.27156372 55.2481842 111.53787231 C45.77592345 112.98279345 36.44004592 114.76485946 27.12709045 117.01052856 C20.90721626 118.49064587 14.67961757 119.9302113 8.43959045 121.32302856 C7.69773499 121.48980103 6.95587952 121.65657349 6.19154358 121.82839966 C5.132901 122.063573 5.132901 122.063573 4.0528717 122.30349731 C3.43839172 122.44037964 2.82391174 122.57726196 2.19081116 122.71829224 C-0.48619277 123.25952017 -3.17839399 123.69074124 -5.87290955 124.13552856 C-5.89623871 108.11559319 -5.91388881 92.0956633 -5.92472172 76.07571507 C-5.92988464 68.63788346 -5.93692726 61.20006239 -5.948349 53.76223755 C-5.95829596 47.28171515 -5.964763 40.80120037 -5.96699804 34.32067055 C-5.96830513 30.88722314 -5.97139085 27.45379756 -5.9786396 24.02035713 C-5.98665371 20.19359036 -5.98690068 16.36684521 -5.98643494 12.54006958 C-5.99003021 11.39352402 -5.99362549 10.24697845 -5.99732971 9.06568909 C-5.99595505 8.02937347 -5.99458038 6.99305786 -5.99316406 5.92533875 C-5.99408586 5.01921624 -5.99500765 4.11309374 -5.99595737 3.17951298 C-5.75542952 -0.81596742 -3.45104844 0.01542233 0 0 Z " fill="#000000" transform="translate(727.8729095458984,13.864471435546875)"/>
<path d="M0 0 C3.93254008 -0.09895097 7.86459746 -0.1715042 11.7980957 -0.21972656 C13.79339014 -0.24971281 15.78833582 -0.30053786 17.78320312 -0.3515625 C19.03681641 -0.36445313 20.29042969 -0.37734375 21.58203125 -0.390625 C23.31803589 -0.4220459 23.31803589 -0.4220459 25.08911133 -0.45410156 C28 0 28 0 29.80688477 1.82299805 C31.45011776 4.82130143 32.80935996 7.91146089 34.125 11.0625 C36.74333859 17.19221009 39.49584273 23.2385042 42.375 29.25 C46.69163069 38.28647832 50.82807189 47.39654576 54.90478516 56.54345703 C55.989684 58.97686143 57.07852101 61.40847307 58.16796875 63.83984375 C60.98255127 70.1339531 63.78911764 76.42012646 66.375 82.8125 C70.44540771 92.72974764 75.02429737 102.67126432 80.13793945 112.09765625 C81 114 81 114 81 117 C77.29173349 117.05837668 73.5835863 117.09372277 69.875 117.125 C68.82828125 117.14175781 67.7815625 117.15851563 66.703125 117.17578125 C55.92080818 117.24402376 55.92080818 117.24402376 52 115 C50.20703125 112.0234375 50.20703125 112.0234375 48.8125 108.375 C48.34457031 107.18648437 47.87664062 105.99796875 47.39453125 104.7734375 C46.93433594 103.52820313 46.47414063 102.28296875 46 101 C45.01 98.36 44.02 95.72 43 93 C24.19 92.67 5.38 92.34 -14 92 C-14.99 94.97 -15.98 97.94 -17 101 C-17.99749722 103.68029787 -19.00877019 106.3427683 -20.0625 109 C-20.31837891 109.66644531 -20.57425781 110.33289063 -20.83789062 111.01953125 C-22.76407738 115.88203869 -22.76407738 115.88203869 -25 117 C-26.63189138 117.09602558 -28.2676309 117.13074567 -29.90234375 117.1328125 C-30.87494141 117.13410156 -31.84753906 117.13539063 -32.84960938 117.13671875 C-33.86861328 117.13285156 -34.88761719 117.12898437 -35.9375 117.125 C-36.95263672 117.12886719 -37.96777344 117.13273438 -39.01367188 117.13671875 C-40.47450195 117.13478516 -40.47450195 117.13478516 -41.96484375 117.1328125 C-43.30470337 117.13112061 -43.30470337 117.13112061 -44.67163086 117.12939453 C-47 117 -47 117 -50 116 C-49.4120999 112.54227924 -48.52615999 109.64123016 -47.03125 106.47265625 C-46.63035156 105.6110791 -46.22945313 104.74950195 -45.81640625 103.86181641 C-45.38199219 102.93804199 -44.94757813 102.01426758 -44.5 101.0625 C-41.14547786 93.81535426 -37.94958583 86.54565127 -35 79.125 C-28.94076797 63.99315885 -22.05345629 49.21256179 -15.32983398 34.36816406 C-11.81055445 26.59394066 -8.3345768 18.80094391 -4.875 11 C-4.37250732 9.86731689 -3.87001465 8.73463379 -3.35229492 7.56762695 C-2.23402758 5.04545334 -1.11649027 2.52296065 0 0 Z " fill="#030303" transform="translate(313,484)"/>
<path d="M0 0 C32.01 0 64.02 0 97 0 C97 19.01031367 97 19.01031367 88.625 28.375 C87.54118753 29.61302625 86.45922236 30.85267161 85.37890625 32.09375 C84.82090332 32.73441406 84.26290039 33.37507812 83.68798828 34.03515625 C80.91504669 37.26290197 78.23687816 40.56548744 75.5625 43.875 C74.7578833 44.86886719 74.7578833 44.86886719 73.93701172 45.8828125 C71.72302698 48.62072737 69.51326266 51.36200964 67.30615234 54.10546875 C56.42989792 67.62037807 56.42989792 67.62037807 51.375 73.125 C47.72029582 77.10577445 44.33659293 81.25293684 41 85.5 C40.51837402 86.11246582 40.03674805 86.72493164 39.54052734 87.35595703 C37.04378806 90.53030492 37.04378806 90.53030492 35 94 C67.175 94.495 67.175 94.495 100 95 C100 101.93 100 108.86 100 116 C66.67 116 33.34 116 -1 116 C-1 96.02608696 -1 96.02608696 8 87 C9.87563373 84.71436936 11.65112109 82.35567841 13.4375 80 C17.54528977 74.70395934 21.91153958 69.75012639 26.47265625 64.8359375 C29.76766763 61.13859861 32.78493094 57.25951957 35.81542969 53.34521484 C43.37933429 43.60074918 51.27563554 33.72436446 60 25 C60.33 23.68 60.66 22.36 61 21 C40.87 21 20.74 21 0 21 C0 14.07 0 7.14 0 0 Z " fill="#010101" transform="translate(980,484)"/>
<path d="M0 0 C8.58 0 17.16 0 26 0 C26.33 16.17 26.66 32.34 27 49 C34.41115915 37.86564059 34.41115915 37.86564059 41.81359863 26.72546387 C42.73057396 25.35374732 43.65567974 23.98744897 44.58654785 22.62512207 C47.09132045 18.94711779 49.44447966 15.2665737 51.59838867 11.37109375 C57.50881789 1.06460844 57.50881789 1.06460844 61.86068726 -0.79516602 C66.81788484 -1.92658111 71.67335734 -1.47492382 76.6875 -1 C78.17864985 -0.91956386 79.67022182 -0.84659053 81.16210938 -0.78125 C84.78365082 -0.60658047 88.38906166 -0.33183493 92 0 C91.63213379 0.48976318 91.26426758 0.97952637 90.88525391 1.48413086 C88.3197492 4.90194507 85.75795137 8.32228433 83.2109375 11.75390625 C78.14217345 18.56929706 73.00685399 25.31525801 67.6875 31.9375 C66.94161621 32.87130493 66.94161621 32.87130493 66.18066406 33.82397461 C64.03171241 36.50728547 61.86516816 39.15652892 59.62109375 41.76171875 C58.96238281 42.54160156 58.30367187 43.32148437 57.625 44.125 C57.06039062 44.76695312 56.49578125 45.40890625 55.9140625 46.0703125 C54.71962327 48.02148828 54.71962327 48.02148828 55.73779297 50.27319336 C57.08096531 53.17491327 58.60757186 55.8338145 60.28125 58.55859375 C60.95019287 59.65300781 61.61913574 60.74742187 62.30834961 61.875 C62.66524872 62.45507812 63.02214783 63.03515625 63.38986206 63.6328125 C65.30038651 66.73864238 67.1978201 69.85246894 69.09765625 72.96484375 C69.49449112 73.61411835 69.89132599 74.26339294 70.30018616 74.93234253 C74.47875914 81.77263039 78.61653524 88.63724258 82.7421875 95.509552 C83.92182589 97.47389929 85.10347314 99.43702877 86.28515625 101.40014648 C87.01186477 102.61042666 87.73843446 103.8207902 88.46484375 105.03125 C89.100271 106.08892578 89.73569824 107.14660156 90.39038086 108.23632812 C91.68616068 110.4611465 92.88878254 112.67936284 94 115 C89.83781444 115.24843165 85.67960831 115.42914913 81.51220703 115.54931641 C80.09738001 115.5994188 78.68306622 115.66753362 77.27001953 115.75439453 C72.72128047 116.02687009 68.47172081 116.06422033 64 115 C60.85105336 112.15550339 59.59113306 108.87590374 58 105 C56.97435404 103.14805714 55.92428395 101.30945327 54.8515625 99.484375 C53.77463999 97.57370603 52.69915027 95.66222886 51.625 93.75 C47.03824586 85.58674057 47.03824586 85.58674057 42.37890625 77.46484375 C42.00233887 76.81483398 41.62577148 76.16482422 41.23779297 75.49511719 C40.25941502 73.81127007 39.27637518 72.13013407 38.29296875 70.44921875 C37 68 37 68 37 66 C32.36023309 69.31411922 27.83352212 73.32842 26.52523804 79.09127808 C26.33030373 81.40487868 26.28148503 83.6743964 26.29296875 85.99609375 C26.27784744 86.82963882 26.26272614 87.6631839 26.24714661 88.52198792 C26.20446798 91.16077139 26.19545125 93.79840664 26.1875 96.4375 C26.16434013 98.23635823 26.1389717 100.03518946 26.11132812 101.83398438 C26.04454781 106.22327203 26.02338811 110.60941377 26 115 C17.42 115 8.84 115 0 115 C0 77.05 0 39.1 0 0 Z " fill="#020202" transform="translate(921,658)"/>
<path d="M0 0 C-0.32978484 7.60154046 -2.12782571 13.97319219 -5 21 C-5.99257813 20.71125 -6.98515625 20.4225 -8.0078125 20.125 C-18.19957926 17.28665861 -29.66181257 14.1131465 -39.75 18.8125 C-43.13633716 20.79226789 -43.13633716 20.79226789 -45 24 C-45.58369443 27.41538144 -45.58369443 27.41538144 -45 31 C-41.6177706 35.00625697 -38.12944534 37.23676357 -33.4375 39.5 C-32.52049316 39.94762695 -32.52049316 39.94762695 -31.58496094 40.40429688 C-27.70125559 42.27475051 -23.762677 43.92192263 -19.75 45.5 C-9.046202 49.88983993 -0.40310606 56.45398221 4.4375 67.1875 C6.10617492 78.49740782 5.70893969 88.62897129 -0.5546875 98.43359375 C-7.12677141 106.79678207 -16.96998104 111.57118079 -27.3125 113.4375 C-29.53663367 113.67743684 -31.76724988 113.86155439 -34 114 C-34.64308105 114.04237793 -35.28616211 114.08475586 -35.94873047 114.12841797 C-48.24036892 114.83490136 -62.51233712 114.09339989 -73 107 C-71.83760783 99.80684375 -70.25496388 92.93025566 -68 86 C-66.46279297 86.52400391 -66.46279297 86.52400391 -64.89453125 87.05859375 C-63.53390863 87.51839036 -62.17322849 87.9780168 -60.8125 88.4375 C-60.13896484 88.66759766 -59.46542969 88.89769531 -58.77148438 89.13476562 C-49.7396934 92.1747343 -38.05077255 94.37497111 -28.8125 90.8125 C-25.62535665 88.75856317 -23.84916795 87.32850232 -22 84 C-21.20444032 79.95658841 -21.49532754 76.98640526 -23.375 73.3125 C-28.64655746 68.6685089 -35.04621248 66.34182645 -41.5534668 63.86938477 C-53.13017983 59.44226849 -64.5199805 53.12428942 -69.875 41.3125 C-72.86700738 32.50270049 -73.25753827 24.05788983 -69.37890625 15.44921875 C-63.99592921 5.88795358 -56.10821229 0.25278277 -45.74609375 -3.03125 C-29.90605593 -6.9236825 -15.3439053 -5.23605077 0 0 Z " fill="#020202" transform="translate(756,661)"/>
<path d="M0 0 C8.58 0 17.16 0 26 0 C28.09101828 2.09101828 27.18592545 6.67171645 27.20532227 9.55883789 C27.21522186 10.45631241 27.22512146 11.35378693 27.23532104 12.27845764 C27.2670354 15.25982988 27.29173256 18.24121809 27.31640625 21.22265625 C27.33696721 23.28389411 27.35796344 25.34512766 27.37937927 27.40635681 C27.4346886 32.84299244 27.48405866 38.27966667 27.53222656 43.71636963 C27.58237706 49.25951592 27.63809672 54.80260586 27.69335938 60.34570312 C27.80104926 71.23042066 27.90247002 82.11518703 28 93 C28.58358276 93.01030746 29.16716553 93.02061493 29.76843262 93.03123474 C35.86851038 93.13981518 41.96845568 93.25436778 48.06835938 93.37231445 C50.34176855 93.41549888 52.61520672 93.45718484 54.88867188 93.49731445 C58.16545328 93.5554185 61.44209095 93.61899534 64.71875 93.68359375 C65.72740112 93.70030624 66.73605225 93.71701874 67.77526855 93.73423767 C73.25840359 93.8481103 78.57196385 94.20888062 84 95 C84.02887814 98.47914941 84.04675687 101.95826831 84.0625 105.4375 C84.07087891 106.43072266 84.07925781 107.42394531 84.08789062 108.44726562 C84.09111328 109.39150391 84.09433594 110.33574219 84.09765625 111.30859375 C84.10289307 112.18314209 84.10812988 113.05769043 84.11352539 113.95874023 C84 116 84 116 83 117 C80.41357081 117.09507964 77.85405064 117.12555068 75.26733398 117.11352539 C74.44450204 117.11364593 73.62167009 117.11376646 72.77390385 117.11389065 C70.09794009 117.11314145 67.42204512 117.10551294 64.74609375 117.09765625 C63.09899936 117.09618685 61.45190452 117.09516613 59.80480957 117.09460449 C53.68236595 117.08935137 47.55993231 117.07539029 41.4375 117.0625 C27.763125 117.041875 14.08875 117.02125 0 117 C0 78.39 0 39.78 0 0 Z " fill="#060606" transform="translate(694,484)"/>
<path d="M0 0 C29.04 0 58.08 0 88 0 C88 7.26 88 14.52 88 22 C77.77 22 67.54 22 57 22 C57 52.69 57 83.38 57 115 C48.42 115 39.84 115 31 115 C31 84.31 31 53.62 31 22 C20.77 22 10.54 22 0 22 C0 14.74 0 7.48 0 0 Z " fill="#010101" transform="translate(770,658)"/>
<path d="M0 0 C1.63938444 0.0018526 3.27878915 0.01698752 4.91796875 0.04296875 C5.77729004 0.05303955 6.63661133 0.06311035 7.52197266 0.07348633 C10.05029143 0.11202345 12.57760454 0.16955636 15.10546875 0.23046875 C16.93271484 0.25753906 16.93271484 0.25753906 18.796875 0.28515625 C30.77856292 0.78500581 40.46568748 4.53386763 49.078125 12.96484375 C57.16775615 22.00527933 57.92180741 32.66395216 57.29638672 44.24072266 C56.51429303 52.39169912 51.80856897 59.55989572 46.10546875 65.23046875 C38.34934135 71.05379913 30.73692018 73.56005767 21.01953125 73.4609375 C19.90594742 73.46025017 19.90594742 73.46025017 18.76986694 73.45954895 C17.21521385 73.4565488 15.66056316 73.44873038 14.10595703 73.4362793 C11.71636446 73.41786003 9.32715663 73.41577103 6.9375 73.41601562 C5.42317371 73.41110567 3.90885005 73.40527964 2.39453125 73.3984375 C1.31964951 73.39676826 1.31964951 73.39676826 0.22305298 73.39506531 C-4.77842548 73.34657452 -4.77842548 73.34657452 -5.89453125 72.23046875 C-5.99936257 70.06327289 -6.0330997 67.89261988 -6.03979492 65.72290039 C-6.04315353 65.04321701 -6.04651215 64.36353363 -6.04997253 63.66325378 C-6.0595087 61.40569251 -6.06142698 59.14820519 -6.0625 56.890625 C-6.06571076 55.32742786 -6.06907469 53.76423104 -6.07258606 52.20103455 C-6.07858403 48.91990461 -6.08042528 45.63880105 -6.07983398 42.35766602 C-6.07973233 38.14621431 -6.09338489 33.93493108 -6.11060619 29.72351933 C-6.12170635 26.49368 -6.12375381 23.26388165 -6.12322426 20.03402519 C-6.12440737 18.48103695 -6.12884755 16.92804776 -6.13655663 15.3750782 C-6.14631664 13.20574152 -6.14349453 11.03677383 -6.13745117 8.86743164 C-6.13887619 7.63134659 -6.14030121 6.39526154 -6.14176941 5.12171936 C-5.74506589 0.48259205 -4.56413195 0.27009407 0 0 Z " fill="#FCFCFC" transform="translate(826.89453125,504.76953125)"/>
<path d="M0 0 C8.58 0 17.16 0 26 0 C26 30.69 26 61.38 26 93 C41.18 93 56.36 93 72 93 C72 100.26 72 107.52 72 115 C48.24 115 24.48 115 0 115 C0 77.05 0 39.1 0 0 Z " fill="#010101" transform="translate(367,658)"/>
<path d="M0 0 C9.14703344 5.75403129 14.10387956 14.95914643 16.74609375 25.2109375 C18.80853429 38.79191392 17.68494544 53.1603373 10.28515625 65 C6.47516264 70.16316515 2.36603063 73.92714633 -3.83984375 75.9375 C-11.34056286 76.73544884 -18.98896898 77.31399333 -25.20703125 72.46875 C-26.01527344 71.71078125 -26.01527344 71.71078125 -26.83984375 70.9375 C-27.37867188 70.4528125 -27.9175 69.968125 -28.47265625 69.46875 C-37.3633188 60.35470397 -39.1035238 48.0682913 -39.08642578 35.953125 C-38.91617726 24.36689721 -36.2666032 13.64247415 -28.03515625 5.0546875 C-20.27065436 -1.84338929 -9.88600147 -3.69875158 0 0 Z " fill="#FCFCFC" transform="translate(507.83984375,678.0625)"/>
<path d="M0 0 C8.58 0 17.16 0 26 0 C26.06802949 10.4842161 26.12296172 20.96828334 26.15543652 31.45267105 C26.17103011 36.32204704 26.19215191 41.19126297 26.22631836 46.06054688 C26.25913834 50.76789656 26.27690033 55.47509317 26.28463173 60.18254852 C26.29013489 61.9701147 26.30088013 63.7576734 26.31719017 65.54517365 C26.44985701 80.70042877 25.56088186 96.08813575 14.75 107.875 C5.90009523 116.03380592 -5.61089317 117.34194512 -17.14453125 117.203125 C-22.5263097 116.91958652 -27.72941695 116.09926499 -33 115 C-32.85924795 112.06217531 -32.7126162 109.12484829 -32.5625 106.1875 C-32.52318359 105.35412109 -32.48386719 104.52074219 -32.44335938 103.66210938 C-32.40146484 102.85966797 -32.35957031 102.05722656 -32.31640625 101.23046875 C-32.27974854 100.49207764 -32.24309082 99.75368652 -32.20532227 98.99291992 C-32 97 -32 97 -31 94 C-30.42556152 94.01571045 -29.85112305 94.0314209 -29.25927734 94.04760742 C-26.63128691 94.11035513 -24.00345463 94.14911506 -21.375 94.1875 C-20.47136719 94.21263672 -19.56773437 94.23777344 -18.63671875 94.26367188 C-13.41155752 94.32088167 -9.26241418 94.36001118 -5 91 C0.82226304 83.07581899 -0.39500777 72.50989974 -0.390625 63.18359375 C-0.37562717 61.35798182 -0.35889667 59.53238337 -0.34051514 57.70680237 C-0.29700926 52.92783958 -0.27687987 48.14905978 -0.26177979 43.36993408 C-0.24214801 38.48284154 -0.20018496 33.59594488 -0.16015625 28.70898438 C-0.08503565 19.13935042 -0.03670128 9.5698585 0 0 Z " fill="#030303" transform="translate(592,658)"/>
<path d="M0 0 C8.91 0 17.82 0 27 0 C27.02259891 14.0909395 27.04094289 28.18186695 27.05181217 42.27282047 C27.05702906 48.81592037 27.06410509 55.35900722 27.07543945 61.90209961 C27.08631068 68.21740789 27.09228584 74.53270363 27.09487724 80.84802055 C27.09672384 83.25652705 27.10032977 85.66503286 27.10573006 88.07353401 C27.11299664 91.4488587 27.11398856 94.82413163 27.11352539 98.19946289 C27.11712067 99.19352646 27.12071594 100.18759003 27.12442017 101.21177673 C27.1230455 102.13854218 27.12167084 103.06530762 27.12025452 104.02015686 C27.12117631 104.81750779 27.1220981 105.61485872 27.12304783 106.4363718 C26.96916344 109.64246144 26.45393152 112.82247937 26 116 C17.42 116 8.84 116 0 116 C0 77.72 0 39.44 0 0 Z " fill="#060606" transform="translate(640,484)"/>
<path d="M0 0 C8.58 0 17.16 0 26 0 C26 38.94 26 77.88 26 118 C11 118 11 118 0 117 C0 78.39 0 39.78 0 0 Z " fill="#030303" transform="translate(932,483)"/>
<path d="M0 0 C8.58 0 17.16 0 26 0 C26 37.95 26 75.9 26 115 C17.42 115 8.84 115 0 115 C0 77.05 0 39.1 0 0 Z " fill="#000000" transform="translate(872,658)"/>
<path d="M0 0 C8.58 0 17.16 0 26 0 C26 37.95 26 75.9 26 115 C17.42 115 8.84 115 0 115 C0 77.05 0 39.1 0 0 Z " fill="#000000" transform="translate(639,658)"/>
<path d="M0 0 C0.99 0 1.98 0 3 0 C3.23074219 0.59425781 3.46148437 1.18851563 3.69921875 1.80078125 C5.46692085 6.29339963 7.30100019 10.73566763 9.3125 15.125 C9.725 16.02863281 10.1375 16.93226563 10.5625 17.86328125 C11.34036651 19.56063671 12.11957883 21.25739085 12.90625 22.95068359 C13.88588412 25.06647604 14.84994352 27.18889168 15.8125 29.3125 C16.12678955 29.9823291 16.4410791 30.6521582 16.76489258 31.34228516 C18.74268732 35.74580151 19 37.92733082 19 43 C7.45 43 -4.1 43 -16 43 C-17.12323915 39.63028256 -16.95316053 39.21043328 -15.66064453 36.09521484 C-15.34346466 35.3178598 -15.02628479 34.54050476 -14.69949341 33.73959351 C-14.34748871 32.90513702 -13.99548401 32.07068054 -13.6328125 31.2109375 C-13.27863251 30.35190826 -12.92445251 29.49287903 -12.55953979 28.6078186 C-11.80893248 26.79204746 -11.05377179 24.97815295 -10.29443359 23.16601562 C-9.12824035 20.38273355 -7.97502163 17.59436356 -6.82421875 14.8046875 C-6.09449817 13.04396057 -5.36405395 11.28353334 -4.6328125 9.5234375 C-4.11087814 8.26568008 -4.11087814 8.26568008 -3.57839966 6.98251343 C-1.11803472 1.11803472 -1.11803472 1.11803472 0 0 Z " fill="#F9F9F9" transform="translate(326,512)"/>
<path d="M0 0 C3.47794735 1.73897368 5.42256446 3.00261134 7.375 6.375 C8.50657833 11.127629 8.60984796 13.86742522 6.25 18.25 C3.08326621 22.12045242 1.56190022 22.82645553 -3.375 23.375 C-7.69296607 22.92831385 -9.69326548 21.7684289 -13 19 C-15.36157166 15.99436335 -15.41549579 12.73528778 -15.32421875 8.96484375 C-14.80766846 5.83442451 -13.22817871 4.16451646 -11 2 C-7.28753662 -0.47497559 -4.30406538 -0.65903459 0 0 Z " fill="#050505" transform="translate(889,629)"/>
<path d="M0 0 C3.47794735 1.73897368 5.42256446 3.00261134 7.375 6.375 C8.50657833 11.127629 8.60984796 13.86742522 6.25 18.25 C3.08326621 22.12045242 1.56190022 22.82645553 -3.375 23.375 C-7.69296607 22.92831385 -9.69326548 21.7684289 -13 19 C-15.36157166 15.99436335 -15.41549579 12.73528778 -15.32421875 8.96484375 C-14.80766846 5.83442451 -13.22817871 4.16451646 -11 2 C-7.28753662 -0.47497559 -4.30406538 -0.65903459 0 0 Z " fill="#050505" transform="translate(656,629)"/>
<path d="M0 0 C4.455 1.98 4.455 1.98 9 4 C9 4.33 9 4.66 9 5 C6.03 5 3.06 5 0 5 C0 3.35 0 1.7 0 0 Z " fill="#464646" transform="translate(640,595)"/>
</svg>
