<svg xmlns="http://www.w3.org/2000/svg" viewBox="340 730 930 970">
<g transform="translate(0.000000,2528.000000) scale(0.100000,-0.100000)"
fill="#000000" stroke="none">
<path d="M6745 17820 c-24 -9 -37 -34 -60 -110 -9 -30 -21 -66 -27 -80 -5 -14
-16 -38 -22 -55 -17 -40 -37 -96 -43 -120 -5 -19 -17 -50 -48 -117 -8 -18 -28
-72 -46 -120 -17 -49 -35 -91 -40 -94 -5 -3 -9 -15 -9 -28 0 -12 -7 -31 -15
-42 -8 -10 -15 -29 -15 -41 0 -12 -7 -28 -15 -37 -8 -8 -15 -23 -15 -33 0 -10
-7 -31 -15 -47 -8 -15 -15 -33 -15 -40 0 -6 -9 -29 -19 -51 -11 -22 -34 -76
-51 -120 -18 -44 -38 -95 -46 -113 -8 -18 -14 -42 -14 -52 0 -11 -4 -20 -10
-20 -5 0 -13 -12 -16 -27 -4 -15 -13 -38 -20 -52 -8 -14 -14 -33 -14 -42 0 -9
-9 -28 -20 -42 -11 -14 -20 -36 -20 -49 0 -12 -7 -32 -15 -42 -8 -11 -15 -30
-15 -42 0 -12 -7 -27 -15 -34 -8 -7 -15 -23 -15 -36 0 -13 -9 -41 -20 -61 -11
-21 -20 -48 -20 -60 0 -13 -4 -23 -10 -23 -5 0 -12 -12 -16 -27 -6 -27 -35
-99 -55 -135 -5 -10 -9 -27 -9 -39 0 -11 -9 -32 -20 -46 -11 -14 -20 -34 -20
-44 0 -11 -9 -36 -20 -56 -11 -21 -20 -45 -20 -55 0 -9 -6 -29 -14 -45 -8 -15
-21 -44 -29 -63 -8 -19 -24 -56 -36 -81 -12 -25 -21 -55 -21 -66 0 -11 -7 -26
-15 -33 -8 -7 -15 -24 -15 -39 0 -14 -7 -35 -15 -45 -8 -11 -15 -30 -15 -42 0
-12 -7 -27 -15 -34 -8 -7 -15 -23 -15 -35 0 -12 -9 -34 -20 -48 -11 -14 -20
-36 -20 -50 0 -13 -7 -30 -15 -37 -8 -7 -15 -22 -15 -34 0 -11 -6 -32 -13 -46
-7 -14 -24 -54 -37 -90 -13 -36 -29 -74 -37 -85 -7 -11 -13 -29 -13 -40 0 -11
-7 -29 -15 -39 -8 -11 -15 -32 -15 -46 0 -14 -5 -31 -12 -38 -16 -16 -59 -127
-65 -169 -3 -18 -11 -38 -19 -44 -8 -6 -14 -22 -14 -34 0 -12 -7 -28 -15 -35
-8 -7 -15 -21 -15 -32 0 -10 -6 -29 -14 -41 -23 -37 -29 -77 -11 -77 8 0 15 5
15 12 0 6 7 18 15 27 36 36 85 97 85 104 0 4 5 7 11 7 7 0 26 15 44 33 68 69
274 253 350 313 28 21 55 44 60 50 6 6 37 31 70 54 33 24 62 46 65 50 3 3 23
19 45 35 22 17 42 32 45 35 3 3 12 10 22 15 52 32 163 110 166 117 2 4 10 8
17 8 7 0 32 16 55 35 23 19 46 35 51 35 5 0 32 16 60 35 27 20 60 40 72 46 12
5 36 18 52 29 17 11 56 33 88 50 43 23 57 36 57 53 0 12 7 31 15 41 8 11 15
30 15 42 0 12 7 27 15 34 8 7 15 26 15 42 0 16 6 39 14 51 7 12 26 60 41 107
15 47 33 97 41 112 8 14 14 35 14 46 0 11 7 25 15 32 8 7 15 25 15 40 0 15 7
33 15 40 8 7 15 22 15 34 0 12 9 38 20 59 11 20 20 45 20 55 0 10 5 23 10 28
13 13 70 173 70 195 0 9 7 22 15 29 8 7 15 23 15 36 0 13 9 41 20 61 11 21 20
48 20 60 0 12 4 24 9 27 4 3 11 23 15 44 3 22 13 45 21 52 8 7 15 27 15 45 0
68 55 72 66 5 4 -22 10 -40 15 -40 5 0 9 -8 9 -17 0 -10 7 -31 15 -47 8 -15
15 -36 15 -46 0 -10 7 -23 15 -30 8 -7 15 -24 15 -38 0 -14 7 -33 16 -43 9
-10 18 -36 21 -59 3 -23 12 -44 19 -47 8 -3 14 -13 14 -22 0 -18 44 -149 54
-158 3 -4 6 -14 6 -23 0 -9 11 -38 25 -64 14 -26 25 -55 25 -64 0 -9 7 -26 15
-36 8 -11 15 -30 15 -42 0 -13 6 -27 14 -31 8 -4 16 -21 18 -38 4 -36 26 -43
73 -21 18 9 38 16 43 16 6 0 23 6 39 14 15 8 46 22 68 32 22 9 51 22 65 29 14
7 42 15 62 18 33 5 67 18 195 73 17 8 41 14 53 14 12 0 28 6 36 14 8 8 34 18
59 22 25 3 48 10 51 15 3 5 15 9 28 9 12 0 26 4 32 8 5 5 28 15 52 22 41 13
43 15 36 44 -3 17 -10 35 -15 41 -5 5 -9 17 -9 27 0 10 -4 26 -9 36 -32 60
-51 105 -51 122 0 10 -4 22 -10 25 -5 3 -10 17 -10 30 0 12 -7 25 -15 29 -8 3
-15 14 -15 24 0 10 -4 22 -8 28 -5 5 -14 29 -21 54 -7 25 -17 53 -22 62 -5 10
-9 25 -9 34 0 16 -6 29 -48 111 -12 23 -22 51 -22 63 0 11 -7 23 -15 26 -8 4
-15 15 -15 25 0 22 -40 130 -76 204 -13 28 -24 57 -24 66 0 8 -5 20 -11 26 -7
7 -27 55 -45 108 -18 54 -40 108 -49 121 -8 13 -15 30 -15 38 0 15 -24 75 -56
139 -8 16 -14 36 -14 46 0 10 -13 43 -29 74 -16 31 -37 80 -47 109 -10 29 -24
60 -31 69 -7 8 -13 21 -13 27 0 14 15 13 -615 17 -236 1 -439 -1 -450 -5z"/>
<path d="M9157 17822 c-8 -2 -18 -15 -20 -30 -3 -15 -4 -382 -3 -817 l1 -790
27 -3 c15 -2 37 2 49 9 24 12 121 36 204 49 28 5 77 16 110 25 77 21 134 33
215 46 36 5 76 14 90 20 14 6 68 15 120 20 52 5 121 15 153 22 l57 13 3 712
c2 684 1 712 -16 718 -19 6 -960 12 -990 6z"/>
<path d="M12070 16679 c0 -11 7 -22 15 -25 8 -3 17 -21 21 -40 3 -19 10 -37
15 -40 5 -3 9 -12 9 -20 0 -9 11 -40 26 -71 14 -31 28 -70 31 -87 3 -17 12
-35 20 -39 7 -4 13 -18 13 -29 0 -12 7 -29 16 -39 9 -10 13 -22 10 -27 -3 -5
-220 -12 -498 -15 -271 -3 -548 -10 -615 -16 -409 -36 -641 -59 -713 -70 -30
-5 -91 -14 -135 -19 -117 -16 -210 -31 -295 -47 -41 -8 -131 -24 -200 -35 -69
-11 -145 -26 -170 -34 -25 -8 -71 -17 -103 -20 -32 -4 -74 -13 -94 -21 -19 -8
-50 -15 -67 -15 -17 -1 -42 -7 -56 -15 -14 -8 -38 -14 -55 -15 -16 0 -57 -9
-90 -20 -33 -10 -78 -24 -100 -29 -22 -6 -91 -24 -152 -41 -62 -16 -121 -30
-132 -30 -11 0 -22 -4 -25 -8 -3 -5 -33 -17 -68 -27 -35 -9 -77 -23 -93 -31
-17 -7 -49 -17 -70 -23 -63 -16 -166 -47 -215 -66 -25 -9 -59 -20 -75 -24 -17
-4 -39 -12 -50 -18 -11 -5 -35 -17 -53 -26 -19 -9 -41 -17 -49 -17 -9 0 -39
-11 -67 -25 -55 -26 -123 -52 -171 -64 -29 -7 -63 -24 -95 -46 -8 -6 -33 -17
-55 -24 -37 -12 -84 -33 -220 -96 -27 -13 -60 -26 -72 -30 -13 -3 -23 -11 -23
-16 0 -5 -8 -9 -19 -9 -10 0 -29 -8 -42 -18 -13 -10 -51 -29 -84 -42 -33 -13
-67 -29 -75 -36 -8 -7 -55 -33 -105 -59 -49 -26 -97 -52 -105 -59 -8 -7 -35
-23 -60 -35 -52 -27 -70 -37 -127 -74 -24 -15 -45 -27 -49 -27 -3 0 -23 -13
-43 -29 -20 -15 -47 -32 -60 -36 -13 -4 -58 -30 -98 -59 -41 -28 -89 -60 -106
-71 -17 -11 -39 -27 -48 -36 -9 -9 -38 -31 -65 -49 -27 -18 -54 -39 -60 -46
-6 -7 -38 -33 -71 -56 -216 -154 -529 -440 -708 -648 -26 -30 -59 -68 -74 -85
-15 -16 -53 -64 -85 -105 -31 -41 -69 -90 -84 -108 -15 -19 -29 -39 -31 -45
-2 -7 -7 -14 -10 -17 -14 -12 -91 -120 -91 -128 0 -5 -16 -29 -34 -54 -19 -25
-38 -57 -42 -72 -3 -14 -10 -26 -15 -26 -5 0 -14 -10 -19 -22 -6 -13 -19 -36
-30 -53 -11 -16 -25 -41 -30 -55 -6 -13 -15 -27 -19 -30 -7 -5 -18 -27 -88
-180 -19 -41 -41 -88 -48 -105 -19 -42 -22 -70 -7 -69 6 1 104 2 218 3 l205 1
14 34 c8 19 19 37 25 41 5 3 10 13 10 22 0 15 34 93 66 155 8 14 14 33 14 42
0 9 4 16 9 16 5 0 14 12 20 28 13 30 19 40 74 125 20 31 37 61 37 65 1 4 14
23 30 42 17 19 30 38 30 42 0 4 20 36 45 70 24 35 55 78 67 96 13 18 30 41 38
51 8 10 26 33 40 51 111 147 308 355 460 486 25 22 61 55 80 75 20 19 92 79
160 133 69 54 127 102 128 107 2 5 8 9 14 9 6 0 48 29 93 65 46 36 87 65 90
65 4 0 24 14 45 30 21 17 41 30 46 30 4 0 32 19 63 43 31 23 60 44 66 47 6 3
60 35 122 73 61 37 115 67 121 67 5 0 15 7 22 15 7 8 21 15 31 15 11 0 19 4
19 10 0 5 15 17 33 25 17 8 55 28 82 45 74 44 207 110 222 110 7 0 13 3 13 8
0 7 16 15 190 94 47 22 92 43 100 49 8 5 26 14 40 21 106 49 151 68 160 68 6
0 18 4 28 9 53 27 144 61 184 68 15 3 33 11 39 19 6 8 22 14 35 14 12 0 26 5
29 10 3 6 20 10 37 10 17 0 39 7 49 16 12 10 25 14 36 9 19 -8 21 -6 -37 -29
-8 -4 -28 -15 -45 -26 -35 -23 -72 -40 -86 -40 -6 0 -17 -7 -25 -15 -9 -8 -29
-15 -45 -15 -16 0 -29 -4 -29 -10 0 -5 -21 -19 -47 -31 -27 -12 -55 -27 -63
-34 -8 -7 -58 -35 -110 -63 -52 -27 -115 -62 -140 -76 -25 -14 -57 -32 -72
-38 -16 -7 -28 -15 -28 -19 0 -3 -29 -21 -65 -39 -36 -18 -65 -36 -65 -40 0
-3 -20 -16 -44 -28 -24 -12 -49 -29 -56 -37 -7 -8 -20 -15 -29 -15 -9 0 -27
-12 -40 -25 -13 -14 -28 -25 -34 -25 -6 0 -19 -7 -29 -17 -10 -9 -27 -21 -37
-27 -48 -28 -167 -111 -174 -123 -4 -7 -12 -13 -18 -13 -6 0 -45 -27 -87 -60
-43 -33 -81 -60 -84 -60 -4 0 -20 -12 -35 -26 -37 -35 -130 -104 -140 -104 -4
0 -16 -12 -26 -28 -11 -15 -38 -40 -60 -57 -23 -16 -55 -41 -71 -55 -66 -59
-211 -197 -230 -219 -12 -13 -34 -36 -50 -50 -43 -39 -187 -189 -237 -247 -78
-90 -184 -224 -223 -281 -16 -24 -33 -43 -37 -43 -5 0 -9 -6 -9 -14 0 -8 -11
-28 -25 -44 -14 -17 -25 -33 -25 -37 0 -4 -15 -25 -33 -48 -19 -23 -37 -49
-40 -58 -3 -10 -28 -48 -55 -86 -27 -37 -52 -81 -56 -96 -3 -15 -11 -27 -16
-27 -6 0 -10 -6 -10 -12 0 -7 -23 -60 -51 -118 -28 -58 -56 -115 -62 -127 -5
-13 -8 -26 -4 -29 3 -3 93 -7 200 -9 220 -4 208 -7 242 75 10 25 25 52 32 61
7 8 13 19 13 22 0 16 44 107 52 107 4 0 8 6 8 14 0 12 71 128 141 228 11 15
19 30 19 33 0 3 27 41 60 84 33 43 60 81 60 85 0 3 15 20 33 39 19 18 38 40
43 49 5 9 40 50 78 92 38 42 76 87 85 99 15 22 297 305 406 407 32 30 82 73
111 96 28 22 65 54 81 71 29 31 147 123 157 123 3 0 14 7 24 15 16 15 94 75
157 122 17 13 51 37 78 54 26 17 47 34 47 38 0 4 10 13 23 20 12 6 36 20 52
31 17 11 37 23 45 27 8 3 31 19 51 35 20 15 40 28 44 28 4 0 24 13 44 28 20
15 74 50 121 76 47 27 87 52 90 55 12 15 71 51 83 51 7 0 17 4 22 9 18 17 146
81 161 81 8 0 17 7 20 15 4 8 14 15 24 15 10 0 20 3 22 8 2 6 97 54 399 202 8
4 51 22 95 40 43 17 97 40 120 51 23 10 44 19 48 19 4 0 28 9 54 21 26 12 63
28 82 36 19 8 43 19 52 24 10 5 25 9 35 9 9 0 24 6 32 13 9 7 36 20 61 27 25
8 66 24 92 36 26 12 63 25 84 28 20 4 44 11 53 15 9 5 32 14 51 20 85 30 127
45 157 58 17 7 42 13 56 13 14 0 28 4 31 9 3 5 30 14 58 21 29 6 62 15 73 20
11 4 47 15 80 25 33 9 81 23 106 31 26 8 58 14 72 14 13 0 41 7 61 15 21 9 72
23 114 31 42 8 98 19 123 23 26 5 68 17 93 25 26 9 57 16 69 16 12 0 63 9 112
21 50 11 118 27 152 35 34 8 75 14 91 14 16 0 49 7 72 15 23 8 66 15 95 15 29
0 72 7 95 15 23 8 62 15 85 15 24 0 76 6 116 14 41 8 142 22 224 31 83 9 189
21 237 26 109 13 152 6 145 -25 -6 -24 -105 -266 -116 -281 -4 -5 -14 -30 -21
-55 -8 -25 -20 -51 -27 -58 -7 -7 -13 -20 -13 -27 0 -21 19 -28 26 -11 3 9 14
16 24 16 10 0 57 20 104 45 48 25 91 45 97 45 5 0 37 13 71 29 35 16 107 48
161 71 53 23 100 46 103 51 3 5 12 9 21 9 9 0 39 11 67 24 69 33 227 107 308
145 37 17 72 31 78 31 6 0 18 7 26 15 9 8 24 15 35 15 24 0 25 19 2 26 -10 3
-40 16 -68 29 -27 13 -79 36 -115 50 -36 15 -69 31 -75 36 -5 5 -18 9 -30 9
-11 0 -35 9 -53 20 -18 11 -40 20 -50 20 -9 0 -26 7 -36 15 -11 8 -28 15 -39
15 -10 0 -31 6 -45 14 -26 13 -66 31 -122 54 -14 6 -41 17 -60 26 -19 8 -45
17 -57 21 -13 3 -23 10 -23 15 0 4 -12 11 -27 14 -26 6 -132 48 -213 83 -19 9
-50 19 -67 23 -29 7 -33 5 -33 -11z"/>
<path d="M10116 15531 c-4 -5 -28 -13 -54 -17 -26 -4 -66 -15 -89 -25 -23 -10
-59 -21 -80 -25 -21 -3 -47 -12 -58 -19 -11 -6 -31 -14 -45 -17 -34 -8 -171
-56 -192 -68 -10 -6 -24 -10 -32 -10 -8 0 -27 -6 -43 -14 -15 -7 -44 -20 -63
-28 -19 -8 -56 -25 -81 -37 -25 -11 -54 -21 -63 -21 -9 0 -24 -4 -34 -10 -18
-10 -95 -43 -124 -53 -10 -4 -18 -12 -19 -19 0 -7 -1 -139 -2 -293 -2 -252 -4
-280 -19 -283 -11 -2 -18 6 -23 27 -3 16 -13 32 -21 35 -8 3 -14 16 -14 28 0
13 -12 46 -25 73 -14 28 -25 55 -25 62 0 6 -8 26 -17 45 -9 18 -22 45 -30 60
-7 14 -13 33 -13 42 0 32 -32 96 -49 96 -13 0 -215 -94 -281 -131 -8 -4 -46
-24 -85 -44 -38 -20 -83 -45 -100 -56 -16 -10 -39 -23 -50 -29 -20 -10 -81
-45 -191 -109 -77 -44 -164 -101 -164 -106 0 -3 9 -19 20 -37 11 -18 20 -43
20 -55 0 -13 5 -23 10 -23 6 0 10 -10 10 -21 0 -12 10 -43 21 -68 12 -25 25
-55 29 -66 4 -11 14 -36 23 -56 9 -21 19 -53 22 -73 4 -19 13 -40 21 -47 8 -6
14 -21 14 -33 0 -12 7 -31 15 -42 8 -10 15 -27 15 -37 0 -11 6 -31 14 -45 8
-15 24 -55 35 -90 12 -34 25 -70 30 -80 29 -58 51 -115 51 -132 0 -11 4 -20 8
-20 4 0 18 -35 31 -77 14 -43 28 -82 33 -87 4 -6 8 -17 8 -25 0 -9 7 -29 15
-45 8 -15 15 -36 15 -46 0 -10 7 -25 15 -34 8 -8 15 -23 15 -33 0 -11 7 -28
15 -39 8 -10 15 -29 15 -40 0 -12 7 -27 15 -34 8 -7 15 -21 15 -32 0 -18 9
-43 45 -123 26 -57 65 -164 65 -177 0 -7 7 -22 15 -32 8 -11 15 -27 15 -35 0
-9 8 -26 18 -38 l17 -22 470 0 c259 0 481 0 495 0 590 -3 2514 0 2521 4 11 8
12 882 0 889 -5 3 -467 6 -1028 6 -788 0 -1024 3 -1036 13 -16 11 -17 90 -20
947 -2 861 -3 935 -19 938 -9 2 -19 -1 -22 -7z"/>
<path d="M3717 11593 c-4 -3 -7 -12 -7 -20 0 -7 -14 -44 -31 -81 -17 -37 -39
-85 -49 -107 -10 -22 -30 -67 -45 -100 -15 -33 -33 -73 -40 -90 -24 -58 -50
-116 -129 -288 -20 -43 -36 -82 -36 -85 0 -4 -14 -36 -32 -72 -35 -74 -45 -97
-83 -195 -15 -38 -41 -99 -57 -135 -17 -36 -34 -74 -38 -85 -28 -72 -66 -159
-93 -212 -17 -34 -28 -65 -23 -70 4 -4 84 -8 178 -7 187 1 179 -2 200 69 7 22
18 46 25 53 7 7 13 20 13 27 0 8 7 31 16 52 9 21 20 47 24 58 4 11 12 32 19
48 l11 27 370 0 369 0 15 -27 c7 -16 20 -47 26 -70 7 -24 16 -43 20 -43 4 0
13 -20 19 -45 6 -25 15 -45 19 -45 4 0 14 -21 21 -46 9 -30 21 -48 35 -53 11
-4 95 -7 186 -6 l165 2 -3 24 c-2 13 -8 26 -13 27 -5 2 -9 11 -9 19 0 8 -24
65 -54 127 -72 150 -136 294 -136 308 0 6 -6 19 -13 27 -8 9 -22 39 -32 66
-10 28 -42 100 -71 160 -47 99 -122 263 -161 355 -33 77 -55 120 -64 125 -5 4
-9 13 -9 22 0 14 -54 136 -95 216 -8 16 -15 35 -15 42 0 8 -9 19 -19 25 -22
11 -363 14 -374 3z m220 -403 c3 -17 10 -33 14 -36 5 -3 9 -16 9 -28 0 -13 7
-29 15 -36 8 -7 15 -18 15 -26 0 -7 15 -46 34 -86 18 -40 41 -95 51 -121 9
-26 30 -73 47 -104 19 -37 28 -63 24 -79 l-6 -23 -228 1 c-125 0 -232 5 -239
10 -11 9 5 55 68 194 11 22 19 44 19 48 0 4 6 22 14 39 8 18 27 61 41 97 15
36 35 83 45 105 9 22 20 48 23 58 4 9 16 17 27 17 15 0 22 -8 27 -30z"/>
<path d="M4976 11591 c-7 -11 -8 -1532 -1 -1539 4 -4 278 -6 338 -2 4 0 7 88
7 195 l0 195 40 41 c22 23 40 47 40 55 0 7 8 15 18 18 10 3 35 26 55 51 37 44
77 60 77 30 0 -7 6 -18 13 -22 7 -4 37 -39 67 -78 30 -38 61 -77 69 -86 50
-51 85 -93 186 -225 17 -21 33 -40 38 -42 4 -2 7 -10 7 -18 0 -8 7 -17 15 -20
8 -4 15 -11 15 -18 0 -6 14 -24 30 -40 17 -16 30 -32 30 -35 0 -8 399 -5 407
3 3 3 -5 17 -18 30 -13 13 -32 35 -41 48 -10 12 -39 51 -65 86 -26 35 -57 75
-68 90 -11 15 -45 57 -75 95 -30 38 -73 93 -95 123 -22 29 -65 85 -95 124
-167 212 -200 256 -200 265 0 6 34 46 76 90 41 44 91 98 111 120 20 22 91 99
158 170 67 72 146 156 175 188 29 31 58 57 65 57 7 0 19 -15 26 -32 7 -18 21
-42 31 -52 10 -11 18 -24 18 -29 0 -4 12 -24 26 -43 31 -40 64 -97 99 -171 14
-29 29 -53 33 -53 4 0 16 -17 27 -37 21 -40 57 -100 121 -198 21 -33 42 -66
47 -75 4 -8 18 -33 32 -55 14 -22 31 -51 37 -65 7 -14 25 -45 42 -69 l29 -45
-2 -267 c-2 -165 1 -275 8 -286 9 -18 23 -19 173 -18 90 1 169 5 176 9 9 5 12
78 12 281 l0 274 43 68 c23 38 48 77 55 88 6 11 17 30 22 43 5 13 26 44 45 69
20 26 38 57 41 70 4 13 10 23 14 23 5 0 11 14 15 31 4 17 13 33 21 36 8 3 14
9 14 14 0 5 26 50 58 100 31 50 67 108 80 128 12 20 28 47 35 61 7 14 34 57
60 97 26 39 47 76 47 81 0 5 9 19 20 32 42 48 34 51 -157 48 l-178 -3 -30 -56
c-16 -30 -43 -75 -60 -100 -16 -24 -37 -57 -45 -74 -8 -16 -33 -58 -55 -92
-22 -35 -78 -126 -125 -203 -46 -77 -87 -140 -91 -140 -7 0 -92 127 -102 152
-3 10 -28 50 -55 90 -27 40 -53 83 -56 96 -4 12 -12 22 -17 22 -5 0 -9 5 -9
10 0 12 -97 176 -149 253 l-33 48 -351 -2 -352 -1 -65 -67 c-36 -37 -108 -114
-160 -171 -52 -57 -136 -146 -186 -199 -50 -53 -115 -123 -144 -156 -92 -103
-99 -109 -107 -101 -4 4 -10 161 -13 349 l-5 342 -167 3 c-91 1 -169 -2 -172
-7z"/>
<path d="M8050 11578 c-6 -525 -5 -1520 2 -1524 12 -8 337 -8 345 -1 7 8 14
1424 6 1495 l-5 52 -174 0 c-174 0 -174 0 -174 -22z"/>
<path d="M8768 11593 c-2 -5 -1 -354 2 -778 l5 -770 542 -1 c298 0 547 2 553
6 11 7 22 253 13 278 -4 9 -88 12 -372 12 -272 0 -370 3 -379 12 -9 9 -12 159
-12 614 0 331 -3 609 -6 618 -5 14 -30 16 -174 16 -93 0 -170 -3 -172 -7z"/>
<path d="M10105 11588 c-3 -7 -4 -357 -3 -778 l3 -764 385 1 c460 1 568 11
685 62 11 5 39 16 62 26 23 10 52 28 64 41 12 13 28 24 34 24 6 0 29 16 51 36
21 19 49 42 62 51 12 8 22 21 22 29 0 7 6 17 13 21 34 22 101 160 141 292 27
91 16 335 -20 446 -27 80 -97 205 -115 205 -5 0 -9 6 -9 13 0 14 -110 122
-155 152 -45 30 -68 44 -85 50 -8 4 -28 12 -45 19 -43 18 -90 34 -170 58 -64
18 -106 20 -493 25 -344 4 -423 2 -427 -9z m796 -298 c48 -10 111 -31 140 -46
63 -33 155 -116 176 -159 8 -16 21 -41 28 -55 8 -14 15 -36 15 -50 0 -14 7
-36 15 -50 33 -58 11 -243 -42 -345 -30 -59 -130 -165 -155 -165 -9 0 -21 -6
-25 -12 -4 -7 -24 -19 -43 -27 -82 -32 -157 -41 -351 -41 -170 0 -198 2 -203
16 -3 9 -6 221 -6 473 0 342 3 460 12 469 21 21 336 15 439 -8z"/>
<path d="M11916 10827 l2 -772 168 -5 c93 -3 172 -4 177 -2 4 2 7 352 7 778
l0 774 -177 0 -178 0 1 -773z"/>
<path d="M12556 11584 c-3 -9 -6 -74 -6 -145 l0 -129 405 0 405 0 0 -25 c0
-13 -6 -28 -12 -32 -21 -13 -147 -159 -283 -328 -139 -173 -134 -167 -226
-270 -34 -38 -87 -104 -118 -145 -30 -41 -73 -95 -96 -120 -81 -91 -83 -96
-86 -219 -1 -61 0 -113 2 -116 4 -4 816 -7 1227 -6 l113 1 -3 143 -3 142 -432
-2 c-411 -1 -433 0 -433 17 0 9 7 24 16 31 9 7 44 47 77 89 33 41 72 86 86
101 14 14 40 43 58 65 18 21 73 89 122 149 50 61 134 164 188 230 53 66 112
138 132 160 20 22 50 58 66 79 17 21 38 46 47 56 33 36 38 60 38 173 l0 114
-639 1 c-568 1 -640 0 -645 -14z"/>
<path d="M7967 9690 c-47 -14 -103 -79 -112 -128 -12 -73 3 -142 39 -176 72
-67 173 -73 237 -13 53 50 69 81 69 137 0 77 -61 170 -111 170 -10 0 -21 5
-24 10 -7 12 -58 12 -98 0z"/>
<path d="M11397 9685 c-44 -15 -60 -32 -87 -93 -25 -55 -25 -122 -1 -171 23
-44 103 -91 156 -91 36 0 105 25 105 39 0 5 8 11 18 13 58 15 70 175 19 242
-52 68 -129 90 -210 61z"/>
<path d="M5474 9210 c-28 -4 -60 -12 -72 -19 -11 -6 -34 -11 -50 -11 -16 0
-35 -7 -42 -15 -7 -8 -21 -15 -31 -15 -45 0 -155 -73 -267 -175 -45 -42 -152
-203 -152 -230 0 -8 -4 -23 -9 -33 -6 -9 -18 -44 -28 -77 -32 -106 -19 -438
18 -461 5 -3 9 -16 9 -28 0 -13 9 -35 20 -49 11 -14 20 -30 20 -36 0 -28 144
-206 185 -228 13 -7 25 -19 29 -28 3 -8 15 -15 26 -15 11 0 20 -4 20 -8 0 -13
159 -88 210 -100 122 -28 173 -35 272 -35 59 0 129 6 155 12 26 7 66 17 88 22
57 15 159 61 168 76 4 7 13 13 20 13 19 0 146 99 159 123 6 12 17 27 23 32 19
17 79 107 102 155 12 25 33 84 48 132 24 81 26 98 22 235 -3 135 -19 239 -40
259 -4 4 -7 15 -7 23 0 19 -50 119 -74 147 -8 11 -29 38 -46 62 -16 23 -37 42
-45 42 -8 0 -15 4 -15 8 0 5 -8 17 -19 28 -79 82 -257 163 -431 195 -55 10
-196 9 -266 -1z m251 -297 c186 -44 317 -197 345 -404 21 -153 -9 -278 -92
-390 -27 -36 -64 -74 -81 -84 -18 -10 -36 -24 -40 -32 -4 -7 -15 -13 -23 -13
-8 0 -25 -6 -37 -14 -12 -7 -59 -20 -104 -27 -66 -10 -96 -10 -155 0 -78 13
-201 67 -240 105 -52 51 -78 85 -93 122 -10 21 -24 53 -32 69 -22 41 -29 228
-13 316 6 38 20 79 31 93 10 13 19 29 19 35 0 15 68 103 94 120 11 8 23 18 26
21 15 20 102 65 154 81 78 22 153 23 241 2z"/>
<path d="M8970 9210 c-77 -11 -188 -47 -232 -76 -21 -13 -42 -24 -46 -24 -16
0 -117 -103 -144 -146 -38 -59 -58 -137 -58 -222 0 -97 14 -144 63 -212 45
-62 66 -81 119 -109 20 -11 45 -24 55 -30 39 -22 91 -41 148 -56 33 -8 105
-26 160 -40 55 -14 108 -30 117 -35 10 -6 27 -10 37 -10 26 0 113 -46 124 -65
4 -8 13 -15 20 -15 16 0 37 -47 37 -83 0 -78 -77 -139 -190 -151 -30 -3 -80
-9 -110 -12 -36 -4 -81 0 -130 11 -41 9 -87 19 -103 22 -15 3 -30 9 -33 14 -3
5 -16 9 -28 9 -13 0 -29 7 -36 15 -7 8 -19 15 -26 15 -18 0 -48 17 -95 53 -44
32 -49 33 -49 8 0 -10 -7 -24 -15 -31 -8 -7 -15 -19 -15 -26 0 -8 -4 -22 -9
-32 -27 -50 -61 -133 -61 -150 0 -12 13 -26 33 -37 17 -9 61 -32 97 -50 36
-19 72 -34 81 -35 8 0 19 -4 25 -9 5 -5 41 -16 79 -25 141 -32 209 -39 330
-33 210 11 356 63 463 166 92 88 132 180 132 304 0 168 -73 284 -225 356 -90
43 -216 83 -355 112 -30 6 -69 17 -85 24 -17 7 -45 16 -62 19 -18 4 -35 12
-38 17 -4 5 -14 9 -25 9 -10 0 -31 12 -47 28 -37 34 -52 122 -27 159 52 81
189 116 362 94 108 -14 167 -28 197 -48 11 -7 25 -13 32 -13 8 0 31 -12 53
-26 39 -26 60 -25 60 2 0 8 12 38 26 66 31 62 57 145 50 163 -2 7 -26 22 -53
34 -26 13 -56 27 -65 32 -10 5 -26 9 -37 9 -10 0 -24 6 -30 14 -6 8 -37 17
-68 21 -30 4 -73 13 -95 21 -44 15 -211 17 -308 4z"/>
<path d="M3609 9184 c-12 -15 -12 -1493 0 -1508 7 -8 153 -10 548 -6 l538 5 0
140 0 139 -368 1 c-316 0 -369 2 -377 15 -6 9 -10 254 -10 617 l0 602 -161 3
c-107 2 -164 -1 -170 -8z"/>
<path d="M7080 9190 l-415 -5 -5 -129 c-3 -70 -3 -131 0 -135 3 -3 119 -7 259
-9 139 -1 257 -5 262 -8 12 -7 12 -781 0 -788 -4 -3 -11 -23 -14 -44 -9 -55
-33 -97 -62 -110 -14 -6 -55 -16 -91 -22 -52 -9 -75 -8 -117 5 -63 18 -146 74
-182 121 -31 40 -42 42 -55 10 -5 -13 -12 -25 -17 -27 -5 -2 -26 -29 -48 -59
-22 -30 -45 -59 -51 -65 -6 -5 -18 -21 -27 -34 -15 -23 -14 -26 19 -67 34 -41
148 -119 209 -142 52 -20 174 -42 232 -42 110 0 308 45 334 76 6 8 17 14 23
14 17 0 104 95 118 128 7 15 17 34 24 42 12 15 18 38 34 125 6 28 10 299 10
604 1 442 -2 556 -12 560 -7 3 -200 4 -428 1z"/>
<path d="M7863 9187 c-5 -9 -5 -1508 1 -1514 5 -5 326 -6 332 -1 7 8 5 1501
-3 1509 -10 10 -324 16 -330 6z"/>
<path d="M11989 9186 c-15 -16 -12 -1501 4 -1512 6 -5 82 -7 167 -4 l155 5 5
191 5 191 44 49 c25 27 72 76 104 109 l59 60 25 -30 c14 -17 36 -42 49 -57 13
-15 24 -31 24 -35 0 -3 7 -13 15 -22 13 -14 104 -130 160 -203 91 -121 153
-198 178 -225 l31 -33 193 0 c135 0 193 3 193 11 0 6 -18 33 -40 59 -22 26
-40 51 -40 56 0 5 -9 17 -20 29 -11 11 -49 56 -83 101 -34 44 -68 87 -75 95
-7 7 -26 32 -42 54 -16 22 -35 47 -43 55 -7 8 -26 35 -42 59 -16 24 -35 45
-42 48 -7 3 -13 11 -13 18 0 11 -6 20 -64 90 -14 17 -49 61 -77 99 -48 64 -51
71 -38 92 17 28 125 148 229 253 43 44 79 84 81 89 7 18 115 128 132 135 9 3
17 13 17 22 0 8 27 42 60 75 33 33 60 64 60 70 0 6 -67 10 -187 10 l-188 0
-87 -92 c-49 -51 -88 -96 -88 -100 0 -3 -8 -9 -18 -12 -9 -3 -24 -17 -32 -30
-17 -27 -77 -93 -219 -241 -53 -56 -120 -128 -149 -160 -42 -48 -54 -57 -62
-45 -5 8 -9 160 -10 340 0 178 -4 328 -9 333 -12 12 -310 14 -322 3z"/>
<path d="M9798 9059 c-2 -72 0 -135 3 -141 4 -6 89 -9 222 -7 165 2 219 -1
231 -10 14 -12 16 -85 18 -620 l3 -606 165 0 165 0 3 613 c2 491 5 614 15 618
7 2 114 6 238 7 l224 2 5 130 c3 72 4 133 2 138 -2 4 -293 7 -647 7 l-644 0
-3 -131z"/>
<path d="M11293 8433 l2 -758 167 -3 166 -2 4 52 c1 29 3 370 3 758 l0 705
-172 3 -172 2 2 -757z"/>
</g>
</svg>
